g U_ElbowR_copy
v -1.951047 1.907396 1.570689
v -1.950847 1.881168 1.564329
v -1.915329 1.88159 1.561407
v -1.915331 1.904812 1.567806
v -1.949312 1.931186 1.559368
v -1.915366 1.926558 1.557768
v -1.949259 1.943947 1.539056
v -1.915397 1.939384 1.537329
v -1.949718 1.947024 1.513903
v -1.915386 1.942428 1.512943
v -1.950227 1.940177 1.489727
v -1.915353 1.935926 1.489845
v -1.95068 1.923866 1.471423
v -1.915325 1.91971 1.471783
v -1.950849 1.897482 1.463836
v -1.915327 1.896402 1.465049
v -1.950842 1.873198 1.472233
v -1.915323 1.873757 1.473963
v -1.95175 1.85857 1.491938
v -1.91532 1.861314 1.495077
v -1.951326 1.854831 1.519951
v -1.915327 1.858431 1.519522
v -1.886456 1.863772 1.492481
v -1.886609 1.86052 1.518684
v -1.886095 1.941467 1.512913
v -1.886134 1.937347 1.538685
v -2.060726 1.841764 1.517044
v -2.064194 1.848505 1.479291
v -2.157349 1.844857 1.481981
v -2.155041 1.83936 1.524401
v -2.159311 1.867583 1.445972
v -2.067017 1.871554 1.449076
v -2.160178 1.906999 1.430797
v -2.068048 1.908176 1.438789
v -2.159835 1.948818 1.437862
v -2.067158 1.94472 1.449514
v -2.064541 1.969346 1.478481
v -2.158185 1.978291 1.468745
v -2.061127 1.977766 1.515774
v -2.155981 1.989468 1.509552
v -2.153665 1.983946 1.551932
v -2.057668 1.97117 1.553434
v -2.151659 1.961721 1.588162
v -2.05503 1.950131 1.581899
v -2.15075 1.922634 1.603895
v -2.053685 1.912344 1.594117
v -2.151161 1.880946 1.595675
v -2.054733 1.875067 1.583291
v -2.152802 1.851227 1.565498
v -2.057325 1.850239 1.554426
v -1.950773 1.86317 1.545785
v -2.155041 1.83936 1.524401
v -2.060726 1.841764 1.517044
v -2.206578 1.980965 1.506742
v -2.208117 1.97213 1.46905
v -2.209127 1.94658 1.438148
v -2.209077 1.90674 1.432776
v -2.203892 1.884034 1.589269
v -2.203876 1.923593 1.599471
v -2.204465 1.960189 1.580996
v -2.208441 1.873188 1.451074
v -2.207191 1.855535 1.484466
v -2.205806 1.85037 1.521693
v -2.205308 1.977708 1.545079
v -2.259743 1.966004 1.536041
v -2.259617 1.951238 1.565249
v -2.307571 1.944592 1.561313
v -2.305867 1.917594 1.578825
v -2.259503 1.923348 1.583492
v -2.305677 1.888971 1.571249
v -2.259341 1.891006 1.575981
v -2.306295 1.871269 1.549034
v -2.259431 1.870469 1.550087
v -2.306406 1.862136 1.523119
v -2.259745 1.861627 1.518853
v -2.308322 1.96003 1.533803
v -2.260097 1.968593 1.504004
v -2.308807 1.962294 1.503625
v -2.309043 1.949929 1.477002
v -2.260474 1.958233 1.473407
v -2.308701 1.932123 1.453071
v -2.260864 1.938342 1.448416
v -2.260775 1.90728 1.441453
v -2.307734 1.902354 1.441223
v -2.260549 1.880431 1.4579
v -2.307916 1.881401 1.462415
v -2.260141 1.866763 1.487051
v -2.307645 1.866331 1.490716
v -2.259745 1.861627 1.518853
v -2.306406 1.862136 1.523119
v -1.951326 1.854831 1.519951
v -1.915327 1.858431 1.519522
v -1.915329 1.86542 1.543035
v -1.886609 1.86052 1.518684
v -1.886077 1.866733 1.544088
v -1.885878 1.881571 1.564141
v -1.885685 1.903968 1.571262
v -1.885984 1.924531 1.560177
v -2.204589 1.85987 1.558415
v -2.205806 1.85037 1.521693
v -1.886082 1.935505 1.48802
v -1.886009 1.920001 1.46786
v -1.885807 1.896927 1.460444
v -1.887313 1.875224 1.471525

vn 0.2068896 0.143671 0.9677579
vn 0.1699526 -0.4385013 0.882515
vn 0.01890725 -0.5246801 0.8510896
vn 0.003564971 0.09252533 0.9957039
vn 0.2398407 0.6745431 0.6981891
vn 0.05204714 0.6728033 0.7379884
vn 0.2444723 0.931141 0.270573
vn 0.09428786 0.9418168 0.3226312
vn 0.2243382 0.9727655 -0.05830546
vn 0.08838651 0.9933969 -0.07314484
vn 0.2388741 0.8594651 -0.4519503
vn 0.05645251 0.8747047 -0.4813574
vn 0.2077929 0.4438137 -0.8716947
vn -0.005285944 0.5293436 -0.8483911
vn 0.1702314 -0.08127799 -0.9820465
vn -0.04473687 -0.0492432 -0.9977843
vn 0.1278288 -0.5612428 -0.8177202
vn 0.009305873 -0.6552043 -0.7553944
vn 0.1200559 -0.9119868 -0.3922585
vn 0.0721916 -0.9502013 -0.3031598
vn 0.1096627 -0.985406 -0.130189
vn 0.08100607 -0.9896399 -0.1185367
vn 0.05932514 -0.9692363 -0.2388756
vn 0.06843498 -0.9901064 -0.1224988
vn 0.02137906 0.9934415 -0.1123251
vn 0.04442921 0.9623293 0.268232
vn 0.06807199 -0.9851221 -0.1577991
vn 0.07517006 -0.8980287 -0.4334676
vn -0.06031075 -0.957893 -0.2807198
vn -0.0627368 -0.9901819 -0.1249157
vn -0.03362237 -0.7044957 -0.7089114
vn 0.1236536 -0.5284244 -0.839927
vn 0.02272812 -0.17835 -0.9837046
vn 0.162367 0.07190982 -0.9841067
vn 0.07849858 0.4621127 -0.8833401
vn 0.2047097 0.5591121 -0.8034224
vn 0.1885985 0.8433919 -0.503111
vn 0.05765025 0.8860089 -0.4600703
vn 0.1941507 0.9792448 -0.05818028
vn 0.005880273 0.9958677 -0.0906244
vn 0.01955295 0.9619973 0.2723583
vn 0.1957392 0.8905217 0.4106791
vn 0.026409 0.7158278 0.6977773
vn 0.1903556 0.5117099 0.8378053
vn 0.03358145 0.1827713 0.9825818
vn 0.1595528 -0.0529193 0.98577
vn 0.008401541 -0.4086131 0.912669
vn 0.122212 -0.5967184 0.7930897
vn -0.03532941 -0.8345867 0.5497426
vn 0.08815475 -0.9153997 0.3927751
vn 0.1395467 -0.8333327 0.5348676
vn -0.05267895 -0.9649642 0.2570391
vn 0.07862043 -0.9737526 0.2135999
vn -0.1951852 0.9786971 -0.06367598
vn -0.192311 0.882881 -0.4284129
vn -0.1363044 0.4951532 -0.8580468
vn -0.1009934 -0.1645328 -0.9811877
vn -0.2145001 -0.5171294 0.8285933
vn -0.1977481 0.1183186 0.973086
vn -0.1991287 0.6731804 0.7121629
vn -0.1557421 -0.6864279 -0.7103246
vn -0.2001927 -0.9274625 -0.3158105
vn -0.2046996 -0.9711058 -0.1226856
vn -0.1867682 0.9381115 0.2916578
vn -0.2032105 0.9192864 0.3370725
vn -0.2283814 0.6396576 0.7339484
vn -0.1475429 0.7813174 0.6064439
vn -0.1309837 0.3171461 0.9392879
vn -0.2050089 0.0173587 0.9786062
vn -0.06585649 -0.4272194 0.9017464
vn -0.1705617 -0.6212433 0.7648304
vn -0.02712186 -0.8420857 0.5386615
vn -0.1353325 -0.907348 0.3980012
vn -0.003048258 -0.9539186 0.3000499
vn -0.1079935 -0.9562767 0.2717949
vn -0.1301351 0.9666139 0.2207316
vn -0.1807592 0.9790606 -0.09362795
vn -0.1250116 0.9771006 -0.1721822
vn -0.160519 0.8831972 -0.4406769
vn -0.214383 0.8753272 -0.4334078
vn -0.1300848 0.5631622 -0.816043
vn -0.2152389 0.5870239 -0.7804327
vn -0.1200321 -0.0106438 -0.992713
vn -0.02062066 -0.3160614 -0.9485146
vn -0.1089591 -0.6893398 -0.7161973
vn -0.05615354 -0.8442259 -0.5330378
vn -0.124101 -0.9275007 -0.3526207
vn -0.01823311 -0.9666993 -0.2552646
vn -0.1190972 -0.9826999 -0.1418342
vn -0.0224838 -0.9915842 -0.1274964
vn 0.1194059 -0.9596019 0.2547671
vn 0.08735977 -0.9525391 0.2916119
vn 0.06513609 -0.8688473 0.4907765
vn 0.0556084 -0.9641083 0.2596206
vn -0.003249143 -0.8637329 0.5039395
vn -0.09172231 -0.4825676 0.8710427
vn -0.09021385 0.2097474 0.9735848
vn 0.004761874 0.7537212 0.657177
vn -0.2243879 -0.8700731 0.4388883
vn -0.216482 -0.9420235 0.2563734
vn -0.04135046 0.8577998 -0.5123179
vn -0.1289003 0.4799572 -0.8677706
vn -0.1230728 -0.1757632 -0.976709
vn -0.007186081 -0.7600537 -0.6498205


usemtl Copy Mat
usemap Copy Mat
f 1/1/1 2/2/2 3/3/3
f 1/1/1 3/3/3 4/4/4
f 5/5/5 1/1/1 4/4/4
f 5/5/5 4/4/4 6/6/6
f 7/7/7 5/5/5 6/6/6
f 7/7/7 6/6/6 8/8/8
f 9/9/9 7/7/7 8/8/8
f 9/9/9 8/8/8 10/10/10
f 11/11/11 9/9/9 10/10/10
f 11/11/11 10/10/10 12/12/12
f 13/13/13 11/11/11 12/12/12
f 13/13/13 12/12/12 14/14/14
f 15/15/15 13/13/13 14/14/14
f 15/15/15 14/14/14 16/16/16
f 17/17/17 15/15/15 16/16/16
f 17/17/17 16/16/16 18/18/18
f 19/19/19 17/17/17 18/18/18
f 19/19/19 18/18/18 20/20/20
f 21/21/21 19/19/19 20/20/20
f 21/21/21 20/20/20 22/22/22
f 23/23/23 22/22/22 20/20/20
f 23/23/23 24/24/24 22/22/22
f 25/25/25 12/12/12 10/10/10
f 26/26/26 25/25/25 10/10/10
f 26/26/26 10/10/10 8/8/8
f 19/19/19 21/21/21 27/27/27
f 19/19/19 27/27/27 28/28/28
f 27/27/27 29/29/29 28/28/28
f 27/27/27 30/30/30 29/29/29
f 28/28/28 29/29/29 31/31/31
f 28/28/28 31/31/31 32/32/32
f 32/32/32 19/19/19 28/28/28
f 32/32/32 31/31/31 33/33/33
f 32/32/32 33/33/33 34/34/34
f 34/34/34 33/33/33 35/35/35
f 34/34/34 35/35/35 36/36/36
f 35/35/35 37/37/37 36/36/36
f 35/35/35 38/38/38 37/37/37
f 39/39/39 37/37/37 38/38/38
f 39/39/39 38/38/38 40/40/40
f 39/39/39 40/40/40 41/41/41
f 39/39/39 41/41/41 42/42/42
f 42/42/42 41/41/41 43/43/43
f 42/42/42 43/43/43 44/44/44
f 44/44/44 43/43/43 45/45/45
f 44/44/44 45/45/45 46/46/46
f 46/46/46 45/45/45 47/47/47
f 46/46/46 47/47/47 48/48/48
f 48/48/48 47/47/47 49/49/49
f 48/48/48 49/49/49 50/50/50
f 48/48/48 50/50/50 51/51/51
f 48/48/48 51/51/51 2/2/2
f 2/2/2 46/46/46 48/48/48
f 50/50/50 49/49/49 52/52/52
f 50/50/50 52/52/52 53/53/53
f 54/54/54 41/41/41 40/40/40
f 55/55/55 54/54/54 40/40/40
f 55/55/55 40/40/40 38/38/38
f 56/56/56 55/55/55 38/38/38
f 56/56/56 38/38/38 35/35/35
f 57/57/57 56/56/56 35/35/35
f 57/57/57 35/35/35 33/33/33
f 58/58/58 49/49/49 47/47/47
f 59/59/59 58/58/58 47/47/47
f 59/59/59 47/47/47 45/45/45
f 60/60/60 59/59/59 45/45/45
f 60/60/60 45/45/45 43/43/43
f 61/61/61 57/57/57 33/33/33
f 61/61/61 33/33/33 31/31/31
f 62/62/62 61/61/61 31/31/31
f 62/62/62 31/31/31 29/29/29
f 63/63/63 62/62/62 29/29/29
f 63/63/63 29/29/29 30/30/30
f 64/64/64 60/60/60 43/43/43
f 60/60/60 64/64/64 65/65/65
f 60/60/60 65/65/65 66/66/66
f 59/59/59 60/60/60 66/66/66
f 67/67/67 66/66/66 65/65/65
f 68/68/68 66/66/66 67/67/67
f 68/68/68 69/69/69 66/66/66
f 59/59/59 66/66/66 69/69/69
f 70/70/70 69/69/69 68/68/68
f 70/70/70 71/71/71 69/69/69
f 72/72/72 71/71/71 70/70/70
f 72/72/72 73/73/73 71/71/71
f 74/74/74 73/73/73 72/72/72
f 74/74/74 75/75/75 73/73/73
f 67/67/67 65/65/65 76/76/76
f 76/76/76 65/65/65 77/77/77
f 64/64/64 77/77/77 65/65/65
f 76/76/76 77/77/77 78/78/78
f 77/77/77 79/79/79 78/78/78
f 77/77/77 80/80/80 79/79/79
f 81/81/81 79/79/79 80/80/80
f 81/81/81 80/80/80 82/82/82
f 81/81/81 82/82/82 83/83/83
f 81/81/81 83/83/83 84/84/84
f 84/84/84 83/83/83 85/85/85
f 84/84/84 85/85/85 86/86/86
f 86/86/86 85/85/85 87/87/87
f 86/86/86 87/87/87 88/88/88
f 88/88/88 87/87/87 89/89/89
f 88/88/88 89/89/89 90/90/90
f 54/54/54 80/80/80 77/77/77
f 64/64/64 54/54/54 77/77/77
f 54/54/54 64/64/64 41/41/41
f 64/64/64 43/43/43 41/41/41
f 54/54/54 55/55/55 80/80/80
f 55/55/55 82/82/82 80/80/80
f 55/55/55 56/56/56 82/82/82
f 56/56/56 83/83/83 82/82/82
f 56/56/56 57/57/57 83/83/83
f 57/57/57 85/85/85 83/83/83
f 57/57/57 61/61/61 85/85/85
f 61/61/61 87/87/87 85/85/85
f 61/61/61 62/62/62 87/87/87
f 62/62/62 89/89/89 87/87/87
f 62/62/62 63/63/63 89/89/89
f 51/51/51 91/91/91 92/92/92
f 51/51/51 92/92/92 93/93/93
f 91/91/91 51/51/51 50/50/50
f 91/91/91 50/50/50 53/53/53
f 2/2/2 51/51/51 93/93/93
f 2/2/2 93/93/93 3/3/3
f 94/94/94 93/93/93 92/92/92
f 94/94/94 95/95/95 93/93/93
f 95/95/95 3/3/3 93/93/93
f 95/95/95 96/96/96 3/3/3
f 96/96/96 4/4/4 3/3/3
f 96/96/96 97/97/97 4/4/4
f 97/97/97 6/6/6 4/4/4
f 97/97/97 98/98/98 6/6/6
f 98/98/98 8/8/8 6/6/6
f 98/98/98 26/26/26 8/8/8
f 2/2/2 1/1/1 46/46/46
f 1/1/1 44/44/44 46/46/46
f 1/1/1 5/5/5 44/44/44
f 5/5/5 42/42/42 44/44/44
f 5/5/5 7/7/7 42/42/42
f 39/39/39 42/42/42 7/7/7
f 39/39/39 7/7/7 9/9/9
f 39/39/39 9/9/9 11/11/11
f 39/39/39 11/11/11 37/37/37
f 36/36/36 37/37/37 11/11/11
f 36/36/36 11/11/11 13/13/13
f 34/34/34 36/36/36 13/13/13
f 34/34/34 13/13/13 15/15/15
f 32/32/32 34/34/34 15/15/15
f 32/32/32 15/15/15 17/17/17
f 32/32/32 17/17/17 19/19/19
f 58/58/58 99/99/99 49/49/49
f 99/99/99 52/52/52 49/49/49
f 99/99/99 100/100/100 52/52/52
f 100/100/100 99/99/99 73/73/73
f 100/100/100 73/73/73 75/75/75
f 99/99/99 58/58/58 71/71/71
f 99/99/99 71/71/71 73/73/73
f 58/58/58 69/69/69 71/71/71
f 58/58/58 59/59/59 69/69/69
f 25/25/25 101/101/101 12/12/12
f 101/101/101 14/14/14 12/12/12
f 101/101/101 102/102/102 14/14/14
f 102/102/102 16/16/16 14/14/14
f 102/102/102 103/103/103 16/16/16
f 103/103/103 18/18/18 16/16/16
f 103/103/103 104/104/104 18/18/18
f 104/104/104 20/20/20 18/18/18
f 104/104/104 23/23/23 20/20/20
