g U_Waist_copy
v -2.951045 1.295705 1.388985
v -2.943539 1.353153 1.397833
v -2.920257 1.35195 1.407004
v -2.929355 1.295333 1.39546
v -2.970616 1.295804 1.38486
v -2.964549 1.355226 1.392509
v -2.909894 1.3442 1.391118
v -2.915354 1.294989 1.389136
v -2.941042 1.362164 1.411508
v -2.962587 1.36301 1.407231
v -3.024028 1.35586 1.386052
v -3.024028 1.362834 1.399854
v -3.083576 1.355454 1.392148
v -3.085526 1.363212 1.406944
v -3.105991 1.353681 1.397133
v -3.108418 1.36229 1.411469
v -3.098059 1.295879 1.388079
v -3.077468 1.295822 1.384691
v -3.024028 1.294935 1.380649
v -3.12781 1.352545 1.404749
v -3.131043 1.361346 1.415999
v -3.124178 1.294528 1.395655
v -3.201739 1.344235 1.445899
v -3.194937 1.35748 1.449315
v -3.243605 1.335051 1.503923
v -3.224785 1.351209 1.488522
v -3.232734 1.333599 1.589279
v -3.258858 1.321253 1.589945
v -3.256059 1.329092 1.480118
v -3.205173 1.335126 1.441557
v -3.250534 1.278501 1.477031
v -3.203021 1.286629 1.440399
v -3.241927 1.27407 1.495783
v -3.250534 1.278501 1.477031
v -3.256059 1.329092 1.480118
v -3.256258 1.258661 1.584504
v -3.138092 1.344065 1.391437
v -3.131837 1.295201 1.38956
v -3.236139 1.315837 1.634426
v -3.219767 1.326956 1.634335
v -3.232734 1.333599 1.589279
v -3.258858 1.321253 1.589945
v -3.204633 1.304198 1.688092
v -3.193656 1.312636 1.685816
v -3.131864 1.30301 1.730728
v -3.136448 1.294209 1.73091
v -3.108352 1.301478 1.741196
v -3.109695 1.290808 1.740365
v -3.204811 1.243445 1.680119
v -3.13655 1.239715 1.726412
v -3.247235 1.25478 1.622504
v -3.256258 1.258661 1.584504
v -3.103163 1.263186 1.739723
v -3.107845 1.232707 1.734232
v -3.136747 1.230369 1.722636
v -3.233122 1.422707 1.575091
v -3.217818 1.41121 1.630439
v -3.228125 1.499724 1.62948
v -3.23407 1.509228 1.559526
v -3.194797 1.485553 1.687386
v -3.189455 1.396212 1.686448
v -3.140769 1.445612 1.722843
v -3.137064 1.371738 1.721606
v -3.232734 1.333599 1.589279
v -3.219767 1.326956 1.634335
v -3.193656 1.312636 1.685816
v -3.131864 1.30301 1.730728
v -3.095097 1.341826 1.740375
v -3.108352 1.301478 1.741196
v -3.08418 1.367538 1.737633
v -3.066944 1.452529 1.743125
v -3.104539 1.451348 1.736906
v -3.052732 1.451586 1.748551
v -3.070952 1.364443 1.741107
v -3.059853 1.374506 1.756483
v -3.040401 1.457226 1.761664
v -3.028396 1.36938 1.753045
v -3.022807 1.352609 1.742194
v -2.989723 1.454275 1.742
v -3.008704 1.456798 1.765993
v -3.070952 1.364443 1.741107
v -3.007475 1.348577 1.74155
v -2.957844 1.453314 1.737711
v -2.959003 1.35925 1.737261
v -2.910437 1.446918 1.727265
v -2.968949 1.325854 1.738231
v -2.990756 1.331124 1.740833
v -2.950642 1.303628 1.737847
v -2.941479 1.335073 1.730994
v -2.905618 1.366882 1.722014
v -2.853655 1.475595 1.677291
v -2.859369 1.390104 1.680247
v -2.916646 1.302759 1.729995
v -2.855658 1.311938 1.684499
v -2.832419 1.405025 1.625445
v -2.830037 1.325003 1.633384
v -2.828931 1.491199 1.614463
v -2.819508 1.503351 1.545225
v -2.821705 1.415193 1.565089
v -2.81602 1.334216 1.587506
v -3.073883 1.439821 1.41425
v -3.108121 1.440614 1.421224
v -3.105149 1.522498 1.41246
v -3.068274 1.52118 1.408223
v -3.026139 1.439073 1.408535
v -3.025044 1.520255 1.405483
v -3.142883 1.523062 1.420426
v -3.143895 1.440294 1.431888
v -3.024028 1.362834 1.399854
v -2.962587 1.36301 1.407231
v -2.978884 1.439575 1.41124
v -2.941042 1.362164 1.411508
v -2.943683 1.438164 1.417959
v -2.983246 1.519145 1.405101
v -2.945894 1.518069 1.410017
v -2.917241 1.361068 1.416546
v -2.908841 1.434594 1.429684
v -2.852221 1.357277 1.450322
v -2.860462 1.432395 1.454063
v -2.908143 1.51652 1.424566
v -2.867762 1.514589 1.444991
v -2.827243 1.42491 1.499522
v -2.83602 1.510633 1.489439
v -2.821705 1.415193 1.565089
v -2.819508 1.503351 1.545225
v -2.81602 1.334216 1.587506
v -2.816657 1.349788 1.504726
v -2.939887 1.296058 1.739833
v -2.941333 1.288132 1.749748
v -2.9203 1.262748 1.749024
v -2.916808 1.263899 1.735315
v -2.950642 1.303628 1.737847
v -2.950248 1.297858 1.749249
v -2.968949 1.325854 1.738231
v -2.970675 1.318606 1.746791
v -2.990756 1.331124 1.740833
v -2.993911 1.32206 1.753614
v -3.007475 1.348577 1.74155
v -3.013394 1.341919 1.752594
v -3.022807 1.352609 1.742194
v -3.028461 1.344727 1.750891
v -3.091712 1.335523 1.751055
v -3.104666 1.30025 1.749728
v -3.083281 1.359339 1.75212
v -3.070638 1.355642 1.75123
v -3.08418 1.367538 1.737633
v -3.070952 1.364443 1.741107
v -3.106104 1.290683 1.748305
v -3.093755 1.266901 1.751991
v -3.109695 1.290808 1.740365
v -3.104666 1.30025 1.749728
v -3.108352 1.301478 1.741196
v -3.091712 1.335523 1.751055
v -3.095097 1.341826 1.740375
v -3.083281 1.359339 1.75212
v -3.08418 1.367538 1.737633
v -3.103163 1.263186 1.739723
v -3.107845 1.232707 1.734232
v -3.102287 1.240083 1.750015
v -3.102287 1.240083 1.750015
v -2.998937 1.195463 1.75046
v -3.015336 1.182045 1.74951
v -2.950248 1.297858 1.749249
v -2.974702 1.198111 1.747885
v -2.943604 1.232574 1.750646
v -2.941333 1.288132 1.749748
v -2.9203 1.262748 1.749024
v -2.970675 1.318606 1.746791
v -3.193348 1.438323 1.458258
v -3.225295 1.432265 1.500755
v -3.224813 1.517089 1.492695
v -3.186107 1.521047 1.445768
v -3.23407 1.509228 1.559526
v -3.233122 1.422707 1.575091
v -3.194937 1.35748 1.449315
v -3.131043 1.361346 1.415999
v -3.108418 1.36229 1.411469
v -3.085526 1.363212 1.406944
v -3.224785 1.351209 1.488522
v -3.232734 1.333599 1.589279
v -2.8395 1.33528 1.444116
v -2.845115 1.286467 1.440477
v -2.915354 1.294989 1.389136
v -2.909894 1.3442 1.391118
v -2.848285 1.345138 1.447005
v -2.852221 1.357277 1.450322
v -2.917241 1.361068 1.416546
v -2.806989 1.331792 1.505381
v -2.792206 1.328945 1.480321
v -2.792206 1.328945 1.480321
v -2.799721 1.279118 1.475109
v -2.816657 1.349788 1.504726
v -2.793492 1.321358 1.586481
v -2.81602 1.334216 1.587506
v -2.7945 1.261412 1.581975
v -2.811213 1.272111 1.496284
v -2.799721 1.279118 1.475109
v -2.792206 1.328945 1.480321
v -2.80895 1.310521 1.637103
v -2.830037 1.325003 1.633384
v -2.855658 1.311938 1.684499
v -2.845574 1.30131 1.685287
v -2.915139 1.296252 1.731357
v -2.916646 1.302759 1.729995
v -2.793492 1.321358 1.586481
v -2.81602 1.334216 1.587506
v -2.939887 1.296058 1.739833
v -2.950642 1.303628 1.737847
v -2.916808 1.263899 1.735315
v -2.853868 1.240332 1.685126
v -2.7945 1.261412 1.581975
v -2.819235 1.249055 1.647096
v -2.92328 1.234278 1.72748
v -2.853868 1.240332 1.685126
v -2.916808 1.263899 1.735315
v -2.940342 1.231281 1.7379
v -2.943604 1.232574 1.750646
v -2.940342 1.231281 1.7379
v -2.916808 1.263899 1.735315
v -2.9203 1.262748 1.749024
v -3.131837 1.295201 1.38956
v -3.138092 1.344065 1.391437
v -3.12781 1.352545 1.404749
v -3.124178 1.294528 1.395655
v -3.053152 1.165542 1.744386
v -3.050038 1.171637 1.750241
v -3.078957 1.164986 1.747526
v -3.085011 1.160467 1.738142

vn 0.2935551 0.1205745 -0.9483076
vn 0.2841556 0.2522739 -0.9249938
vn 0.2264094 0.5041135 -0.8334317
vn -0.2740175 0.1893161 -0.9429072
vn 0.1439616 0.1156424 -0.9828032
vn 0.1248984 0.2465586 -0.9610459
vn -0.6284168 0.1830683 -0.756028
vn -0.4086147 0.08194015 -0.9090214
vn 0.1684506 0.8269411 -0.5364633
vn 0.06748584 0.8830815 -0.4643411
vn -0.01228393 0.2893786 -0.9571359
vn -0.01681066 0.8890949 -0.4574142
vn -0.1337552 0.3545515 -0.9254203
vn -0.09437241 0.8702244 -0.4835322
vn -0.2764574 0.2840423 -0.9180911
vn -0.1751675 0.8082908 -0.5621231
vn -0.2278598 0.1126615 -0.9671542
vn -0.09970615 0.1020208 -0.989773
vn 0.03947688 0.09827071 -0.9943764
vn -0.386196 0.6338076 -0.6701795
vn -0.4014519 0.5781729 -0.7103185
vn -0.3055474 0.117549 -0.9448931
vn -0.5003103 0.6887202 -0.5247419
vn -0.6494221 0.4570801 -0.6077241
vn -0.8869627 0.4609496 -0.02868339
vn -0.6770817 0.7336443 -0.05767474
vn -0.5133548 0.854448 0.07990875
vn -0.9760437 0.167221 -0.1391965
vn -0.6111743 0.4233568 -0.6687564
vn -0.6017491 0.1689589 -0.7806093
vn -0.605952 -0.01287279 -0.7953971
vn -0.5932229 -0.02102491 -0.8047636
vn -0.9934526 -0.02239555 -0.1120284
vn -0.890105 -0.102156 0.444159
vn -0.8661107 -0.124134 0.4841931
vn -0.9861116 -0.02671936 -0.1639205
vn -0.5966145 0.129833 -0.7919561
vn -0.5772702 -0.04256277 -0.8154432
vn -0.8076755 0.3338929 0.4859791
vn -0.5091233 0.7630652 0.398152
vn -0.4577846 0.8385546 0.2953974
vn -0.902764 0.1973911 0.38217
vn -0.7169974 0.1070339 0.6888093
vn -0.4263206 0.7069097 0.5643842
vn -0.4289108 0.4657354 0.7740322
vn -0.4994587 -0.06096236 0.8641902
vn -0.3606313 0.07878098 0.9293755
vn -0.3413557 -0.08228078 0.9363258
vn -0.6424986 -0.08504584 0.7615529
vn -0.4640674 -0.08912015 0.8813053
vn -0.8782848 -0.00240141 0.4781319
vn -0.9725605 -0.05994713 0.2247941
vn -0.3179363 -0.09558454 0.9432815
vn -0.299459 -0.1812931 0.9367269
vn -0.3246342 -0.3484868 0.8793007
vn -0.9805043 -0.02104006 0.1953678
vn -0.9270474 -0.02933185 0.3737949
vn -0.9594059 -0.06602389 0.2741919
vn -0.9963478 0.004418717 0.08527353
vn -0.8018857 -0.06799503 0.5935958
vn -0.7515721 -0.00748995 0.6596084
vn -0.4240987 -0.04467408 0.9045135
vn -0.4790904 0.03126134 0.8772087
vn -0.9600995 0.03755613 0.2771258
vn -0.910319 0.03984464 0.4119851
vn -0.6842411 0.04295802 0.7279896
vn -0.4881891 0.08509052 0.86858
vn -0.3356673 0.1393361 0.9316185
vn -0.3942032 0.1479646 0.9070337
vn -0.281117 0.008261903 0.959638
vn -0.2760257 -0.04371672 0.9601556
vn -0.05453111 -0.8675317 0.4943836
vn -0.6005713 0.0712 0.7963948
vn -0.6225803 0.06354932 0.7799714
vn -0.3743233 -0.1480757 0.9153992
vn -0.1815179 -0.05589018 0.9817982
vn 0.3198478 -0.2050391 0.9250171
vn 0.2286054 -0.332161 0.9151003
vn 0.4189151 -0.1345136 0.8980068
vn 0.3426626 -0.2127333 0.9150556
vn -0.1982458 -0.7483854 0.6329437
vn 0.09595378 -0.009002286 0.9953451
vn 0.146839 -0.01202203 0.9890873
vn 0.179559 -0.007186336 0.983721
vn 0.4158049 -0.02229323 0.9091805
vn 0.07895158 0.01744267 0.9967259
vn 0.1402501 0.09382015 0.985661
vn 0.2045995 0.0894135 0.9747535
vn 0.2754453 -0.006293118 0.9612961
vn 0.5579337 -0.002287635 0.8298823
vn 0.7762951 -0.02662572 0.629807
vn 0.7986888 0.01256957 0.601613
vn 0.5573161 0.04456301 0.8291037
vn 0.7897077 0.07216135 0.6092244
vn 0.9521896 0.03074231 0.3039572
vn 0.9434792 0.08700001 0.3198094
vn 0.9516274 -0.01931778 0.3066469
vn 0.9882641 -0.005210476 0.1526658
vn 0.9738733 0.0643702 0.2177779
vn 0.9360073 0.1534118 0.316789
vn -0.1387016 0.02545925 -0.990007
vn -0.2324558 -0.004685973 -0.9725957
vn -0.174894 -0.08644744 -0.9807849
vn -0.09999545 -0.05566859 -0.9934294
vn -0.005902016 0.02815449 -0.9995862
vn -0.003868621 -0.05003197 -0.9987401
vn -0.3488663 -0.1136379 -0.9302574
vn -0.4031865 -0.009346902 -0.9150701
vn -0.03113565 0.1129699 -0.9931105
vn 0.1091315 0.09337641 -0.9896319
vn 0.09824719 0.002347947 -0.9951592
vn 0.1980662 0.09064386 -0.9759884
vn 0.2267759 0.002965548 -0.9739425
vn 0.09522269 -0.07970744 -0.9922597
vn 0.2685769 -0.08024253 -0.9599103
vn 0.3818495 0.1092714 -0.9177422
vn 0.409329 0.02592538 -0.9120185
vn 0.6058845 0.1094932 -0.7879817
vn 0.6667664 0.03285589 -0.7445422
vn 0.421759 -0.05982082 -0.9047324
vn 0.724096 -0.009284478 -0.6896367
vn 0.9537413 0.07093073 -0.2921411
vn 0.9514721 0.009415104 -0.3075909
vn 0.9892324 0.02042785 -0.1449209
vn 0.9517531 -0.08982883 -0.2934225
vn 0.9947508 0.09935839 -0.02447168
vn 0.9339356 0.1207977 -0.3364108
vn 0.7095965 0.5745332 0.4079023
vn 0.6156032 0.6064658 0.5032216
vn 0.7541163 0.5446745 0.3669309
vn 0.8029335 0.5411128 0.2499895
vn 0.6580902 0.6532212 0.3744585
vn 0.6640549 0.6209044 0.4165437
vn 0.5515326 0.655963 0.5152906
vn 0.3593599 0.69394 0.6239452
vn 0.4074256 0.6822984 0.6070201
vn 0.06326722 0.02462365 0.9976928
vn 0.5077062 0.6186022 0.5996381
vn 0.01817334 0.0959482 0.9952204
vn 0.149885 0.7107302 0.6873115
vn 0.07813397 0.3693337 0.9260063
vn -0.010693 -0.009618235 0.9998966
vn -0.0238876 -0.03136384 0.9992225
vn 0.05461231 0.09764134 0.9937221
vn 0.1875851 0.7941589 0.5780343
vn 0.1587197 0.8159965 0.5558396
vn 0.1522307 0.7186876 0.6784644
vn -0.1210329 0.02774109 0.9922609
vn -0.04075554 -0.006458334 0.9991482
vn -0.8275058 -0.1866071 0.5295394
vn -0.8816248 0.2253513 0.4146741
vn -0.8621466 0.2715292 0.4277558
vn -0.8541051 0.2904136 0.4314677
vn -0.8622819 0.3255074 0.3879623
vn -0.8684226 0.3510864 0.3501148
vn -0.8723426 0.4003077 0.2806641
vn -0.7768272 -0.09050164 0.6231766
vn -0.8957242 0.1521389 0.4177703
vn -0.9382357 0.283947 0.1977067
vn -0.02812673 -0.05518058 0.9980802
vn 0.01706596 -0.01667312 0.9997153
vn -0.02282212 -0.04288648 0.9988192
vn 0.01081684 0.01765891 0.9997855
vn 0.00696114 -0.01537678 0.9998575
vn -0.04601093 0.01284949 0.9988583
vn 0.02523114 0.01512715 0.9995672
vn 0.05130588 0.01404533 0.9985843
vn 0.06686841 -0.05900711 0.9960155
vn -0.6370919 0.02199233 -0.7704741
vn -0.9449147 0.009491245 -0.3271791
vn -0.8894966 -0.02895589 -0.4560235
vn -0.5956121 -0.07682768 -0.7995897
vn -0.9922744 -0.01958913 -0.1225067
vn -0.9952887 -0.01347037 -0.09601541
vn -0.6790299 0.0948236 -0.7279608
vn -0.429152 0.1129699 -0.8961397
vn -0.2370215 0.1321941 -0.9624684
vn -0.1537525 0.116774 -0.981185
vn -0.9788805 0.01356578 -0.2039828
vn -0.9965105 -0.01733357 -0.08164747
vn 0.6180216 0.2071451 -0.75838
vn 0.5992306 -0.008607674 -0.8005302
vn 0.5940291 -0.02099901 -0.8041694
vn 0.5787724 0.3346488 -0.7436617
vn 0.5875738 0.6351252 -0.5013711
vn 0.5670044 0.4597603 -0.6834665
vn 0.3239566 0.6652684 -0.672659
vn 0.9789374 0.1814326 -0.09361447
vn 0.15042 0.9883416 -0.02355533
vn 0.6063236 -0.009354621 -0.795163
vn 0.6057024 -0.008124131 -0.7956498
vn 0.763477 0.6290678 -0.1462064
vn 0.9403655 0.3310502 -0.07822071
vn 0.4949323 0.8546372 0.1569629
vn 0.983241 -0.02242039 -0.1809268
vn 0.9963669 -0.06153349 -0.05887868
vn 0.8648265 -0.1551041 0.4775122
vn 0.838083 -0.180278 0.5148948
vn 0.877255 0.1601612 0.4525175
vn 0.4790274 0.8010344 0.3589938
vn 0.5099906 0.6120226 0.6044319
vn 0.6735805 0.02236595 0.7387755
vn 0.4942399 0.1924154 0.8477637
vn 0.4089477 0.3583635 0.8392481
vn 0.8528409 0.394387 0.34223
vn 0.4816696 0.8190683 0.3116435
vn 0.2992004 0.216836 0.9292262
vn 0.2057932 0.5113009 0.8343983
vn 0.5613463 -0.01685578 0.8274093
vn 0.6601089 -0.09175351 0.7455451
vn 0.9465786 -0.07385261 0.3139027
vn 0.8484733 -0.08168518 0.5228963
vn 0.5174506 -0.3226843 0.79254
vn 0.5133823 -0.3225125 0.7952511
vn 0.5174506 -0.3226843 0.79254
vn 0.5339095 -0.3233046 0.7812904
vn 0.7910697 -0.5763406 0.205037
vn 0.7929306 -0.5515759 0.258892
vn 0.7910697 -0.5763406 0.205037
vn 0.7863699 -0.5992818 0.1499459
vn 0.6994034 0.1367046 -0.7015318
vn 0.7469506 0.1207297 -0.6538267
vn 0.6994034 0.1367046 -0.7015318
vn 0.62332 0.1590245 -0.7656261
vn 0.08324364 -0.8405281 0.5353345
vn 0.09957495 -0.7152721 0.6917158
vn 0.08324364 -0.8405281 0.5353345
vn 0.06800517 -0.9153566 0.3968595


usemtl Copy Mat
usemap Copy Mat
f 1/1/1 2/2/2 3/3/3
f 1/1/1 3/3/3 4/4/4
f 2/2/2 1/1/1 5/5/5
f 2/2/2 5/5/5 6/6/6
f 7/7/7 4/4/4 3/3/3
f 7/7/7 8/8/8 4/4/4
f 9/9/9 2/2/2 6/6/6
f 9/9/9 6/6/6 10/10/10
f 10/10/10 6/6/6 11/11/11
f 10/10/10 11/11/11 12/12/12
f 13/13/13 12/12/12 11/11/11
f 13/13/13 14/14/14 12/12/12
f 15/15/15 14/14/14 13/13/13
f 15/15/15 16/16/16 14/14/14
f 17/17/17 15/15/15 13/13/13
f 17/17/17 13/13/13 18/18/18
f 18/18/18 13/13/13 11/11/11
f 18/18/18 11/11/11 19/19/19
f 6/6/6 5/5/5 19/19/19
f 6/6/6 19/19/19 11/11/11
f 16/16/16 15/15/15 20/20/20
f 16/16/16 20/20/20 21/21/21
f 15/15/15 17/17/17 22/22/22
f 15/15/15 22/22/22 20/20/20
f 23/23/23 21/21/21 20/20/20
f 23/23/23 24/24/24 21/21/21
f 24/24/24 23/23/23 25/25/25
f 24/24/24 25/25/25 26/26/26
f 27/27/27 26/26/26 25/25/25
f 27/27/27 25/25/25 28/28/28
f 23/23/23 29/29/29 25/25/25
f 23/23/23 30/30/30 29/29/29
f 30/30/30 23/23/23 20/20/20
f 30/30/30 31/31/31 29/29/29
f 30/30/30 32/32/32 31/31/31
f 33/33/33 28/28/28 25/25/25
f 34/34/34 33/33/33 25/25/25
f 34/34/34 25/25/25 35/35/35
f 33/33/33 36/36/36 28/28/28
f 32/32/32 30/30/30 37/37/37
f 30/30/30 20/20/20 37/37/37
f 32/32/32 37/37/37 38/38/38
f 39/39/39 40/40/40 41/41/41
f 39/39/39 41/41/41 42/42/42
f 40/40/40 39/39/39 43/43/43
f 40/40/40 43/43/43 44/44/44
f 43/43/43 45/45/45 44/44/44
f 43/43/43 46/46/46 45/45/45
f 47/47/47 45/45/45 46/46/46
f 47/47/47 46/46/46 48/48/48
f 49/49/49 46/46/46 43/43/43
f 49/49/49 50/50/50 46/46/46
f 51/51/51 39/39/39 42/42/42
f 51/51/51 49/49/49 43/43/43
f 51/51/51 43/43/43 39/39/39
f 51/51/51 42/42/42 52/52/52
f 53/53/53 48/48/48 46/46/46
f 53/53/53 46/46/46 50/50/50
f 50/50/50 54/54/54 53/53/53
f 50/50/50 55/55/55 54/54/54
f 56/56/56 57/57/57 58/58/58
f 56/56/56 58/58/58 59/59/59
f 57/57/57 60/60/60 58/58/58
f 57/57/57 61/61/61 60/60/60
f 61/61/61 62/62/62 60/60/60
f 61/61/61 63/63/63 62/62/62
f 57/57/57 56/56/56 64/64/64
f 57/57/57 64/64/64 65/65/65
f 61/61/61 57/57/57 65/65/65
f 61/61/61 65/65/65 66/66/66
f 63/63/63 61/61/61 66/66/66
f 63/63/63 66/66/66 67/67/67
f 68/68/68 63/63/63 67/67/67
f 68/68/68 67/67/67 69/69/69
f 70/70/70 62/62/62 63/63/63
f 70/70/70 63/63/63 68/68/68
f 71/71/71 62/62/62 70/70/70
f 71/71/71 72/72/72 62/62/62
f 73/73/73 71/71/71 70/70/70
f 73/73/73 70/70/70 74/74/74
f 73/73/73 74/74/74 75/75/75
f 73/73/73 75/75/75 76/76/76
f 77/77/77 76/76/76 75/75/75
f 75/75/75 78/78/78 77/77/77
f 77/77/77 78/78/78 79/79/79
f 77/77/77 79/79/79 80/80/80
f 77/77/77 80/80/80 76/76/76
f 75/75/75 81/81/81 78/78/78
f 79/79/79 78/78/78 82/82/82
f 79/79/79 82/82/82 83/83/83
f 83/83/83 82/82/82 84/84/84
f 83/83/83 84/84/84 85/85/85
f 82/82/82 86/86/86 84/84/84
f 82/82/82 87/87/87 86/86/86
f 84/84/84 86/86/86 88/88/88
f 84/84/84 88/88/88 89/89/89
f 85/85/85 84/84/84 89/89/89
f 90/90/90 89/89/89 88/88/88
f 85/85/85 89/89/89 90/90/90
f 90/90/90 91/91/91 85/85/85
f 90/90/90 92/92/92 91/91/91
f 92/92/92 90/90/90 93/93/93
f 90/90/90 88/88/88 93/93/93
f 92/92/92 93/93/93 94/94/94
f 95/95/95 92/92/92 94/94/94
f 95/95/95 94/94/94 96/96/96
f 92/92/92 95/95/95 97/97/97
f 92/92/92 97/97/97 91/91/91
f 95/95/95 98/98/98 97/97/97
f 95/95/95 99/99/99 98/98/98
f 99/99/99 95/95/95 96/96/96
f 99/99/99 96/96/96 100/100/100
f 101/101/101 102/102/102 103/103/103
f 101/101/101 103/103/103 104/104/104
f 105/105/105 101/101/101 104/104/104
f 105/105/105 104/104/104 106/106/106
f 102/102/102 107/107/107 103/103/103
f 102/102/102 108/108/108 107/107/107
f 101/101/101 105/105/105 109/109/109
f 105/105/105 110/110/110 109/109/109
f 105/105/105 111/111/111 110/110/110
f 111/111/111 105/105/105 106/106/106
f 111/111/111 112/112/112 110/110/110
f 111/111/111 113/113/113 112/112/112
f 113/113/113 111/111/111 114/114/114
f 111/111/111 106/106/106 114/114/114
f 113/113/113 114/114/114 115/115/115
f 113/113/113 116/116/116 112/112/112
f 113/113/113 117/117/117 116/116/116
f 117/117/117 113/113/113 115/115/115
f 117/117/117 118/118/118 116/116/116
f 117/117/117 119/119/119 118/118/118
f 119/119/119 117/117/117 120/120/120
f 117/117/117 115/115/115 120/120/120
f 119/119/119 120/120/120 121/121/121
f 122/122/122 119/119/119 121/121/121
f 122/122/122 121/121/121 123/123/123
f 124/124/124 122/122/122 123/123/123
f 124/124/124 123/123/123 125/125/125
f 122/122/122 124/124/124 126/126/126
f 122/122/122 126/126/126 127/127/127
f 119/119/119 122/122/122 127/127/127
f 119/119/119 127/127/127 118/118/118
f 128/128/128 129/129/129 130/130/130
f 128/128/128 130/130/130 131/131/131
f 132/132/132 129/129/129 128/128/128
f 132/132/132 133/133/133 129/129/129
f 133/133/133 132/132/132 134/134/134
f 133/133/133 134/134/134 135/135/135
f 135/135/135 134/134/134 136/136/136
f 135/135/135 136/136/136 137/137/137
f 137/137/137 136/136/136 138/138/138
f 137/137/137 138/138/138 139/139/139
f 140/140/140 139/139/139 138/138/138
f 140/140/140 141/141/141 139/139/139
f 142/142/142 139/139/139 141/141/141
f 142/142/142 143/143/143 139/139/139
f 143/143/143 137/137/137 139/139/139
f 141/141/141 144/144/144 142/142/142
f 141/141/141 145/145/145 144/144/144
f 145/145/145 146/146/146 144/144/144
f 145/145/145 147/147/147 146/146/146
f 141/141/141 140/140/140 147/147/147
f 141/141/141 147/147/147 145/145/145
f 143/143/143 148/148/148 137/137/137
f 149/149/149 137/137/137 148/148/148
f 149/149/149 148/148/148 150/150/150
f 151/151/151 150/150/150 148/148/148
f 151/151/151 152/152/152 150/150/150
f 153/153/153 152/152/152 151/151/151
f 153/153/153 154/154/154 152/152/152
f 154/154/154 153/153/153 155/155/155
f 154/154/154 155/155/155 156/156/156
f 149/149/149 150/150/150 157/157/157
f 149/149/149 157/157/157 158/158/158
f 149/149/149 158/158/158 159/159/159
f 160/160/160 161/161/161 149/149/149
f 160/160/160 162/162/162 161/161/161
f 163/163/163 149/149/149 161/161/161
f 163/163/163 161/161/161 164/164/164
f 163/163/163 164/164/164 165/165/165
f 165/165/165 166/166/166 163/163/163
f 165/165/165 167/167/167 166/166/166
f 163/163/163 168/168/168 149/149/149
f 149/149/149 168/168/168 137/137/137
f 169/169/169 170/170/170 171/171/171
f 169/169/169 171/171/171 172/172/172
f 170/170/170 173/173/173 171/171/171
f 170/170/170 174/174/174 173/173/173
f 170/170/170 169/169/169 175/175/175
f 169/169/169 176/176/176 175/175/175
f 169/169/169 108/108/108 176/176/176
f 108/108/108 169/169/169 172/172/172
f 108/108/108 177/177/177 176/176/176
f 108/108/108 102/102/102 177/177/177
f 102/102/102 178/178/178 177/177/177
f 102/102/102 101/101/101 178/178/178
f 101/101/101 109/109/109 178/178/178
f 170/170/170 175/175/175 179/179/179
f 174/174/174 170/170/170 179/179/179
f 174/174/174 179/179/179 180/180/180
f 108/108/108 172/172/172 107/107/107
f 181/181/181 182/182/182 183/183/183
f 181/181/181 183/183/183 184/184/184
f 185/185/185 181/181/181 184/184/184
f 185/185/185 184/184/184 3/3/3
f 186/186/186 185/185/185 3/3/3
f 186/186/186 3/3/3 187/187/187
f 181/181/181 185/185/185 188/188/188
f 181/181/181 188/188/188 189/189/189
f 182/182/182 181/181/181 190/190/190
f 182/182/182 190/190/190 191/191/191
f 185/185/185 186/186/186 192/192/192
f 185/185/185 192/192/192 188/188/188
f 192/192/192 193/193/193 188/188/188
f 192/192/192 194/194/194 193/193/193
f 2/2/2 187/187/187 3/3/3
f 2/2/2 9/9/9 187/187/187
f 195/195/195 188/188/188 193/193/193
f 195/195/195 196/196/196 188/188/188
f 197/197/197 188/188/188 196/196/196
f 197/197/197 198/198/198 188/188/188
f 199/199/199 200/200/200 201/201/201
f 199/199/199 201/201/201 202/202/202
f 203/203/203 202/202/202 201/201/201
f 203/203/203 201/201/201 204/204/204
f 200/200/200 199/199/199 205/205/205
f 200/200/200 205/205/205 206/206/206
f 204/204/204 207/207/207 203/203/203
f 204/204/204 208/208/208 207/207/207
f 209/209/209 202/202/202 203/203/203
f 207/207/207 209/209/209 203/203/203
f 209/209/209 210/210/210 202/202/202
f 211/211/211 205/205/205 199/199/199
f 211/211/211 199/199/199 212/212/212
f 212/212/212 199/199/199 202/202/202
f 212/212/212 202/202/202 210/210/210
f 213/213/213 214/214/214 215/215/215
f 213/213/213 215/215/215 216/216/216
f 217/217/217 218/218/218 219/219/219
f 217/217/217 219/219/219 220/220/220
f 221/221/221 222/222/222 223/223/223
f 221/221/221 223/223/223 224/224/224
f 225/225/225 226/226/226 227/227/227
f 225/225/225 227/227/227 228/228/228
