g U_ThighL_copy
v -3.044323 0.8486539 1.534453
v -3.051596 0.8485287 1.459665
v -3.048754 0.9310833 1.455527
v -3.038547 0.9310827 1.526269
v -3.036166 0.8041035 1.538579
v -3.043115 0.8041041 1.458311
v -3.086862 0.8483899 1.397814
v -3.078905 0.8041041 1.387681
v -3.156963 0.8482245 1.393965
v -3.156572 0.8041041 1.376693
v -3.222759 0.8492661 1.427751
v -3.22713 0.8041041 1.413719
v -3.263506 0.8508488 1.48991
v -3.271632 0.8041041 1.480115
v -3.272713 0.8482356 1.563624
v -3.284094 0.8041037 1.559321
v -3.252272 0.8476202 1.638402
v -3.26307 0.7976741 1.64223
v -3.206816 0.8483115 1.693668
v -3.216907 0.8036877 1.703656
v -3.135307 0.8485692 1.712135
v -3.135787 0.8026803 1.724154
v -3.072312 0.8488646 1.680468
v -3.071514 0.8041035 1.69387
v -3.142591 0.7566119 1.710038
v -3.077437 0.75653 1.682802
v -3.140806 0.6877131 1.705125
v -3.210425 0.6877136 1.686307
v -3.212931 0.6382113 1.688699
v -3.138979 0.6382113 1.706495
v -3.257456 0.6382113 1.626867
v -3.2532 0.6874517 1.626901
v -3.273895 0.6382113 1.551634
v -3.27024 0.687254 1.553552
v -3.263519 0.6382113 1.475429
v -3.261042 0.6870337 1.478552
v -3.22365 0.6382113 1.409905
v -3.220264 0.6869646 1.415722
v -3.247804 0.5919355 1.617533
v -3.205162 0.5924459 1.672803
v -3.263854 0.5918655 1.548304
v -3.255036 0.5918077 1.477926
v -3.219386 0.5917303 1.416764
v -3.157356 0.5916633 1.382326
v -3.156346 0.6382113 1.373599
v -3.088975 0.5916569 1.391476
v -3.081486 0.6382113 1.382434
v -3.154757 0.687022 1.383232
v -3.086192 0.6872224 1.392392
v -3.042794 0.6382111 1.446778
v -3.049893 0.687169 1.4524
v -3.037507 0.6382111 1.523759
v -3.043322 0.6871753 1.528035
v -3.092824 0.5665292 1.39605
v -3.157987 0.5665293 1.386511
v -3.218368 0.5665293 1.419081
v -3.11832 0.3269066 1.430856
v -3.159909 0.3269067 1.419028
v -3.200019 0.3269067 1.436742
v -3.119536 0.2920897 1.430228
v -3.160012 0.2920898 1.42039
v -3.198684 0.2920898 1.434037
v -3.121629 0.2101669 1.414702
v -3.158385 0.210167 1.405014
v -3.196707 0.2101672 1.411252
v -3.094041 0.2920896 1.461483
v -3.099141 0.2101669 1.446742
v -3.085118 0.2920897 1.502167
v -3.091894 0.2101672 1.485157
v -3.224042 0.2101675 1.439199
v -3.225538 0.2920898 1.46551
v -3.234559 0.2101672 1.476393
v -3.232193 0.2920898 1.506316
v -3.225436 0.2101672 1.514449
v -3.219477 0.2920898 1.545871
v -3.201404 0.2101672 1.544891
v -3.193438 0.2920898 1.577548
v -3.164645 0.2101669 1.557766
v -3.15284 0.2920897 1.585816
v -3.126601 0.2101672 1.550326
v -3.113192 0.2920894 1.573191
v -3.098971 0.2101672 1.523563
v -3.08823 0.2920898 1.54377
v -3.091894 0.2101672 1.485157
v -3.085118 0.2920897 1.502167
v -3.08199 0.3269064 1.549292
v -3.080993 0.3269069 1.505076
v -3.109942 0.3269067 1.58233
v -3.151059 0.3269067 1.597682
v -3.194347 0.3269067 1.591405
v -3.221576 0.3269069 1.557128
v -3.233642 0.3269067 1.514786
v -3.226557 0.3269067 1.471537
v -3.057023 0.5665291 1.587336
v -3.04958 0.5665288 1.518981
v -3.080116 0.5665288 1.65253
v -3.137654 0.5665292 1.684974
v -3.203967 0.5665293 1.66877
v -3.138567 0.5925891 1.688846
v -3.245225 0.5665293 1.613723
v -3.261545 0.5665293 1.546669
v -3.253317 0.5665293 1.47825
v -3.04815 0.5919214 1.520627
v -3.056628 0.5920735 1.591139
v -3.079718 0.5922469 1.657654
v -3.037507 0.6382111 1.523759
v -3.046503 0.6382111 1.600532
v -3.043322 0.6871753 1.528035
v -3.051839 0.6873162 1.60449
v -3.072742 0.6382117 1.67286
v -3.076957 0.6875315 1.674958
v -3.044168 0.7562008 1.534257
v -3.051691 0.7563618 1.611921
v -3.036166 0.8041035 1.538579
v -3.043508 0.8041039 1.618866
v -3.044323 0.8486539 1.534453
v -3.04957 0.8488448 1.610194
v -3.038547 0.9310827 1.526269
v -3.041119 0.9310832 1.597821
v -3.061451 0.9310826 1.666059
v -3.120229 0.9310849 1.703348
v -3.189375 0.9310833 1.689426
v -3.239521 0.9310836 1.63989
v -3.263853 0.9301851 1.570662
v -3.260301 0.931551 1.50212
v -3.226375 0.9306816 1.443822
v -3.162595 0.9310836 1.404891
v -3.233716 1.004706 1.442722
v -3.163017 0.9999704 1.392627
v -3.09359 0.9310836 1.403018
v -3.258328 1.006495 1.506742
v -3.255864 1.002716 1.578756
v -3.224115 0.9981247 1.652595
v -3.176227 0.9880986 1.692583
v -3.113034 0.9759674 1.707652
v -3.059093 0.9545523 1.671466
v -3.041507 0.9478465 1.599392
v -3.098879 0.9729347 1.394697
v -3.051218 0.9527986 1.445858
v -3.038535 0.946931 1.521881
v -3.211288 0.7564737 1.689489
v -3.254937 0.7562964 1.630514
v -3.274046 0.7562072 1.556699
v -3.263321 0.7560432 1.480927
v -3.221757 0.7559102 1.417338
v -3.155238 0.755906 1.382509
v -3.084268 0.7559444 1.393276
v -3.05011 0.7560723 1.457254
v -3.044168 0.7562008 1.534257
v -3.087151 0.3269067 1.461481
v -3.080993 0.3269069 1.505076
v -3.054626 0.5665292 1.450021
v -3.04958 0.5665288 1.518981
v -3.052846 0.5919128 1.449729
v -3.04815 0.5919214 1.520627

vn 0.9933835 -0.01002407 -0.1144061
vn 0.9347724 0.06898333 -0.348485
vn 0.9292001 -0.06304022 -0.364161
vn 0.9877579 -0.05467643 -0.146099
vn 0.9941296 0.0608796 -0.08944316
vn 0.9614553 0.02766001 -0.2735665
vn 0.4733033 0.166057 -0.8651065
vn 0.5762045 0.0816054 -0.8132214
vn -0.2375215 0.1987438 -0.9508335
vn -0.165759 0.1107572 -0.9799269
vn -0.6769421 0.1871482 -0.7118462
vn -0.665752 0.07326415 -0.7425676
vn -0.9378982 0.1511995 -0.3122273
vn -0.9320282 0.04033248 -0.3601345
vn -0.9824857 0.1562383 0.1015459
vn -0.9981221 0.01805362 0.05853371
vn -0.8608119 0.1762462 0.4774306
vn -0.9040377 0.003507852 0.4274381
vn -0.5031278 0.1973151 0.8413852
vn -0.5414025 -0.01446471 0.8406392
vn 0.1460473 0.1539297 0.9772286
vn 0.06907335 -0.03055055 0.9971437
vn 0.7871697 0.07078792 0.6126605
vn 0.7471243 -0.0426634 0.6633137
vn 0.03961215 -0.1575844 0.9867107
vn 0.7159205 -0.1391213 0.6841807
vn 0.09719519 -0.02941132 0.9948307
vn -0.5612624 -0.002980961 0.8276325
vn -0.546613 -0.1426703 0.8251421
vn 0.1133309 -0.172173 0.9785258
vn -0.9081402 -0.08533831 0.4098765
vn -0.907037 0.006577079 0.4209996
vn -0.9970195 -0.06108454 0.04712531
vn -0.9978319 -0.001451359 0.06579692
vn -0.9443839 -0.04875387 -0.325211
vn -0.944384 0.01919718 -0.3282838
vn -0.6895588 -0.02038493 -0.7239428
vn -0.6801004 0.06379747 -0.7303378
vn -0.8703836 -0.2371776 0.4314848
vn -0.4891413 -0.2963202 0.8203262
vn -0.9815903 -0.1780238 0.06919572
vn -0.9427169 -0.1525807 -0.2966549
vn -0.7102414 -0.1517364 -0.6874106
vn -0.2216278 -0.1762405 -0.9590727
vn -0.1862175 0.0002165625 -0.9825085
vn 0.4736167 -0.2116485 -0.8549223
vn 0.5383101 -0.007748989 -0.8427112
vn -0.1918857 0.08392575 -0.9778222
vn 0.5304847 0.08629168 -0.843291
vn 0.9538394 -0.01918058 -0.2997042
vn 0.9507852 0.07159512 -0.3014661
vn 0.9969775 0.02181066 -0.07456565
vn 0.9956182 0.04326175 -0.08290178
vn 0.4972025 -0.1816191 -0.8484127
vn -0.09096279 -0.1425905 -0.9855931
vn -0.6704772 -0.1015755 -0.734944
vn 0.5090157 -0.1506293 -0.8474751
vn -0.2291914 -0.1112567 -0.9670022
vn -0.6117631 -0.07471443 -0.7875048
vn 0.5219201 0.05496201 -0.8512217
vn -0.01945502 0.1263523 -0.9917947
vn -0.5180408 0.1783338 -0.8365589
vn 0.5465555 0.1359165 -0.8263195
vn -0.08728866 0.2104547 -0.9736989
vn -0.4495039 0.2292763 -0.8633531
vn 0.8998443 -0.01686248 -0.4358853
vn 0.9444833 -0.004661594 -0.3285262
vn 0.9782739 -0.04396179 -0.2026019
vn 0.9817692 -0.04275697 -0.1852052
vn -0.8214356 0.1502954 -0.5501408
vn -0.9082146 0.09513184 -0.407549
vn -0.9969925 0.03500582 -0.06914157
vn -0.9961771 -0.01567037 0.08594042
vn -0.9163015 -0.09529009 0.3889875
vn -0.8620893 -0.1463261 0.4851709
vn -0.635387 -0.2347227 0.7356552
vn -0.486078 -0.2866111 0.8255799
vn -0.1114293 -0.3269731 0.9384413
vn 0.06065767 -0.3261584 0.9433671
vn 0.3845129 -0.3228774 0.8648121
vn 0.5377201 -0.2907918 0.7913893
vn 0.8189083 -0.250088 0.5165708
vn 0.9158139 -0.194386 0.3514243
vn 0.9831018 -0.1335476 0.1252027
vn 0.9904404 -0.1234036 0.06163954
vn 0.9270416 -0.1796888 0.3290983
vn 0.9896866 -0.1241844 0.07140403
vn 0.5229393 -0.3045754 0.7960958
vn -0.02222229 -0.3311976 0.9432997
vn -0.6030129 -0.268658 0.7511314
vn -0.911145 -0.1769903 0.3721415
vn -0.9935265 -0.1135335 -0.00389768
vn -0.8977502 -0.08355685 -0.4325076
vn 0.9764865 -0.1263062 0.1747022
vn 0.9858834 -0.1284817 0.1073607
vn 0.7562901 -0.2347677 0.6106631
vn 0.1847009 -0.3182392 0.9298437
vn -0.4373699 -0.2831695 0.8535353
vn 0.1517019 -0.2891744 0.9451796
vn -0.8617592 -0.191921 0.4696142
vn -0.9851984 -0.1296021 0.112193
vn -0.9560407 -0.09336138 -0.2779745
vn 0.9837872 -0.1370251 0.1157014
vn 0.9608206 -0.1818182 0.2092033
vn 0.7688224 -0.2447805 0.5907577
vn 0.9864976 -0.1149285 0.1166794
vn 0.9718583 -0.07364859 0.2237575
vn 0.9917865 0.06156818 0.1121113
vn 0.9763354 0.02406841 0.2149178
vn 0.7551113 -0.1332323 0.641916
vn 0.7640558 -0.01910711 0.6448672
vn 0.9936063 -0.04911882 0.1016558
vn 0.9702892 -0.09510373 0.2224725
vn 0.9938485 -0.06043962 0.0928025
vn 0.9757105 -0.01542502 0.2185201
vn 0.9953884 0.05991864 0.07491172
vn 0.9840343 0.01002658 0.1776964
vn 0.995436 -0.07939281 0.05295315
vn 0.9737211 -0.07078965 0.2164629
vn 0.7335819 -0.0297341 0.6789503
vn 0.09228668 0.01275624 0.9956507
vn -0.517103 0.09257341 0.8509023
vn -0.8537238 0.1032102 0.5103953
vn -0.9852311 0.0943062 0.1429189
vn -0.9560012 0.07233772 -0.2843044
vn -0.7098805 0.03648941 -0.7033762
vn -0.2941405 -0.01471263 -0.955649
vn -0.6944541 -0.1086259 -0.7112903
vn -0.2919601 -0.1745768 -0.9403629
vn 0.462562 -0.03518736 -0.8858884
vn -0.9612927 -0.00626599 -0.2754575
vn -0.9875962 0.06504466 0.1429087
vn -0.8661475 0.07411616 0.4942624
vn -0.5467916 0.04180576 0.8362244
vn 0.00102112 -0.07303458 0.9973289
vn 0.6672336 -0.1910703 0.7199246
vn 0.9600801 -0.09279428 0.2638852
vn 0.476737 -0.1526788 -0.8656853
vn 0.9293194 -0.08078245 -0.3603325
vn 0.9846675 -0.04723593 -0.1679248
vn -0.5793293 -0.1514012 0.8009089
vn -0.8996594 -0.1440992 0.4121267
vn -0.9916733 -0.1209483 0.04422275
vn -0.9285032 -0.08301757 -0.3619252
vn -0.6586599 -0.05993978 -0.7500497
vn -0.1616628 -0.05510967 -0.9853061
vn 0.5850924 -0.05621958 -0.8090156
vn 0.9635822 -0.04578119 -0.2634645
vn 0.9935812 -0.0805638 -0.07941003
vn 0.9422552 -0.1357356 -0.306155
vn 0.9810544 -0.1265521 -0.1466864
vn 0.8914978 -0.1503851 -0.4273358
vn 0.9878503 -0.1230695 -0.09489729
vn 0.9308636 -0.1716415 -0.32254
vn 0.9806978 -0.184075 -0.06594162


usemtl Copy Mat
usemap Copy Mat
f 1/1/1 2/2/2 3/3/3
f 1/1/1 3/3/3 4/4/4
f 2/2/2 1/1/1 5/5/5
f 2/2/2 5/5/5 6/6/6
f 7/7/7 2/2/2 6/6/6
f 7/7/7 6/6/6 8/8/8
f 9/9/9 7/7/7 8/8/8
f 9/9/9 8/8/8 10/10/10
f 11/11/11 9/9/9 10/10/10
f 11/11/11 10/10/10 12/12/12
f 13/13/13 11/11/11 12/12/12
f 13/13/13 12/12/12 14/14/14
f 15/15/15 13/13/13 14/14/14
f 15/15/15 14/14/14 16/16/16
f 17/17/17 15/15/15 16/16/16
f 17/17/17 16/16/16 18/18/18
f 19/19/19 17/17/17 18/18/18
f 19/19/19 18/18/18 20/20/20
f 21/21/21 19/19/19 20/20/20
f 21/21/21 20/20/20 22/22/22
f 23/23/23 21/21/21 22/22/22
f 23/23/23 22/22/22 24/24/24
f 25/25/25 24/24/24 22/22/22
f 25/25/25 26/26/26 24/24/24
f 26/26/26 25/25/25 27/27/27
f 25/25/25 28/28/28 27/27/27
f 27/27/27 28/28/28 29/29/29
f 27/27/27 29/29/29 30/30/30
f 28/28/28 31/31/31 29/29/29
f 28/28/28 32/32/32 31/31/31
f 32/32/32 33/33/33 31/31/31
f 32/32/32 34/34/34 33/33/33
f 34/34/34 35/35/35 33/33/33
f 34/34/34 36/36/36 35/35/35
f 36/36/36 37/37/37 35/35/35
f 36/36/36 38/38/38 37/37/37
f 39/39/39 29/29/29 31/31/31
f 39/39/39 40/40/40 29/29/29
f 40/40/40 30/30/30 29/29/29
f 41/41/41 39/39/39 31/31/31
f 41/41/41 31/31/31 33/33/33
f 42/42/42 41/41/41 33/33/33
f 42/42/42 33/33/33 35/35/35
f 43/43/43 42/42/42 35/35/35
f 43/43/43 35/35/35 37/37/37
f 44/44/44 43/43/43 37/37/37
f 44/44/44 37/37/37 45/45/45
f 38/38/38 45/45/45 37/37/37
f 46/46/46 44/44/44 45/45/45
f 46/46/46 45/45/45 47/47/47
f 48/48/48 47/47/47 45/45/45
f 38/38/38 48/48/48 45/45/45
f 48/48/48 49/49/49 47/47/47
f 49/49/49 50/50/50 47/47/47
f 49/49/49 51/51/51 50/50/50
f 51/51/51 52/52/52 50/50/50
f 51/51/51 53/53/53 52/52/52
f 44/44/44 46/46/46 54/54/54
f 44/44/44 54/54/54 55/55/55
f 43/43/43 44/44/44 55/55/55
f 43/43/43 55/55/55 56/56/56
f 42/42/42 43/43/43 56/56/56
f 55/55/55 54/54/54 57/57/57
f 55/55/55 57/57/57 58/58/58
f 58/58/58 56/56/56 55/55/55
f 58/58/58 59/59/59 56/56/56
f 58/58/58 57/57/57 60/60/60
f 58/58/58 60/60/60 61/61/61
f 61/61/61 59/59/59 58/58/58
f 61/61/61 62/62/62 59/59/59
f 61/61/61 60/60/60 63/63/63
f 61/61/61 63/63/63 64/64/64
f 64/64/64 62/62/62 61/61/61
f 64/64/64 65/65/65 62/62/62
f 63/63/63 60/60/60 66/66/66
f 63/63/63 66/66/66 67/67/67
f 67/67/67 66/66/66 68/68/68
f 67/67/67 68/68/68 69/69/69
f 70/70/70 62/62/62 65/65/65
f 70/70/70 71/71/71 62/62/62
f 71/71/71 59/59/59 62/62/62
f 72/72/72 71/71/71 70/70/70
f 72/72/72 73/73/73 71/71/71
f 74/74/74 73/73/73 72/72/72
f 74/74/74 75/75/75 73/73/73
f 76/76/76 75/75/75 74/74/74
f 76/76/76 77/77/77 75/75/75
f 78/78/78 77/77/77 76/76/76
f 78/78/78 79/79/79 77/77/77
f 80/80/80 79/79/79 78/78/78
f 80/80/80 81/81/81 79/79/79
f 82/82/82 81/81/81 80/80/80
f 82/82/82 83/83/83 81/81/81
f 84/84/84 83/83/83 82/82/82
f 84/84/84 85/85/85 83/83/83
f 85/85/85 86/86/86 83/83/83
f 85/85/85 87/87/87 86/86/86
f 83/83/83 86/86/86 88/88/88
f 83/83/83 88/88/88 81/81/81
f 81/81/81 88/88/88 89/89/89
f 81/81/81 89/89/89 79/79/79
f 79/79/79 89/89/89 90/90/90
f 79/79/79 90/90/90 77/77/77
f 77/77/77 90/90/90 91/91/91
f 77/77/77 91/91/91 75/75/75
f 75/75/75 91/91/91 92/92/92
f 75/75/75 92/92/92 73/73/73
f 73/73/73 92/92/92 93/93/93
f 73/73/73 93/93/93 71/71/71
f 71/71/71 93/93/93 59/59/59
f 87/87/87 94/94/94 86/86/86
f 87/87/87 95/95/95 94/94/94
f 86/86/86 94/94/94 96/96/96
f 86/86/86 96/96/96 88/88/88
f 88/88/88 96/96/96 97/97/97
f 88/88/88 97/97/97 89/89/89
f 89/89/89 97/97/97 98/98/98
f 89/89/89 98/98/98 90/90/90
f 99/99/99 98/98/98 97/97/97
f 99/99/99 40/40/40 98/98/98
f 90/90/90 98/98/98 100/100/100
f 90/90/90 100/100/100 91/91/91
f 40/40/40 100/100/100 98/98/98
f 91/91/91 100/100/100 101/101/101
f 91/91/91 101/101/101 92/92/92
f 92/92/92 101/101/101 102/102/102
f 92/92/92 102/102/102 93/93/93
f 41/41/41 102/102/102 101/101/101
f 41/41/41 42/42/42 102/102/102
f 93/93/93 102/102/102 56/56/56
f 93/93/93 56/56/56 59/59/59
f 42/42/42 56/56/56 102/102/102
f 103/103/103 94/94/94 95/95/95
f 103/103/103 104/104/104 94/94/94
f 104/104/104 96/96/96 94/94/94
f 104/104/104 105/105/105 96/96/96
f 105/105/105 99/99/99 97/97/97
f 105/105/105 97/97/97 96/96/96
f 40/40/40 99/99/99 30/30/30
f 40/40/40 39/39/39 100/100/100
f 39/39/39 41/41/41 101/101/101
f 39/39/39 101/101/101 100/100/100
f 104/104/104 103/103/103 106/106/106
f 104/104/104 106/106/106 107/107/107
f 105/105/105 104/104/104 107/107/107
f 108/108/108 107/107/107 106/106/106
f 108/108/108 109/109/109 107/107/107
f 109/109/109 110/110/110 107/107/107
f 105/105/105 107/107/107 110/110/110
f 109/109/109 111/111/111 110/110/110
f 111/111/111 30/30/30 110/110/110
f 111/111/111 27/27/27 30/30/30
f 112/112/112 109/109/109 108/108/108
f 112/112/112 113/113/113 109/109/109
f 113/113/113 111/111/111 109/109/109
f 113/113/113 26/26/26 111/111/111
f 26/26/26 27/27/27 111/111/111
f 113/113/113 112/112/112 114/114/114
f 113/113/113 114/114/114 115/115/115
f 26/26/26 113/113/113 115/115/115
f 116/116/116 115/115/115 114/114/114
f 116/116/116 117/117/117 115/115/115
f 117/117/117 116/116/116 118/118/118
f 117/117/117 118/118/118 119/119/119
f 23/23/23 117/117/117 119/119/119
f 23/23/23 119/119/119 120/120/120
f 26/26/26 115/115/115 24/24/24
f 117/117/117 23/23/23 24/24/24
f 117/117/117 24/24/24 115/115/115
f 21/21/21 23/23/23 120/120/120
f 21/21/21 120/120/120 121/121/121
f 19/19/19 21/21/21 121/121/121
f 19/19/19 121/121/121 122/122/122
f 17/17/17 19/19/19 122/122/122
f 17/17/17 122/122/122 123/123/123
f 15/15/15 17/17/17 123/123/123
f 15/15/15 123/123/123 124/124/124
f 13/13/13 15/15/15 124/124/124
f 13/13/13 124/124/124 125/125/125
f 11/11/11 13/13/13 125/125/125
f 11/11/11 125/125/125 126/126/126
f 9/9/9 11/11/11 126/126/126
f 9/9/9 126/126/126 127/127/127
f 128/128/128 127/127/127 126/126/126
f 128/128/128 129/129/129 127/127/127
f 7/7/7 9/9/9 127/127/127
f 7/7/7 127/127/127 130/130/130
f 129/129/129 130/130/130 127/127/127
f 2/2/2 7/7/7 130/130/130
f 2/2/2 130/130/130 3/3/3
f 131/131/131 128/128/128 126/126/126
f 131/131/131 126/126/126 125/125/125
f 132/132/132 131/131/131 125/125/125
f 132/132/132 125/125/125 124/124/124
f 133/133/133 132/132/132 124/124/124
f 133/133/133 124/124/124 123/123/123
f 134/134/134 133/133/133 123/123/123
f 134/134/134 123/123/123 122/122/122
f 135/135/135 134/134/134 122/122/122
f 135/135/135 122/122/122 121/121/121
f 136/136/136 135/135/135 121/121/121
f 136/136/136 121/121/121 120/120/120
f 137/137/137 136/136/136 120/120/120
f 137/137/137 120/120/120 119/119/119
f 138/138/138 3/3/3 130/130/130
f 138/138/138 139/139/139 3/3/3
f 139/139/139 4/4/4 3/3/3
f 139/139/139 140/140/140 4/4/4
f 129/129/129 138/138/138 130/130/130
f 25/25/25 141/141/141 28/28/28
f 141/141/141 32/32/32 28/28/28
f 141/141/141 142/142/142 32/32/32
f 142/142/142 34/34/34 32/32/32
f 142/142/142 143/143/143 34/34/34
f 143/143/143 36/36/36 34/34/34
f 143/143/143 144/144/144 36/36/36
f 144/144/144 38/38/38 36/36/36
f 144/144/144 145/145/145 38/38/38
f 145/145/145 48/48/48 38/38/38
f 145/145/145 146/146/146 48/48/48
f 146/146/146 49/49/49 48/48/48
f 146/146/146 147/147/147 49/49/49
f 147/147/147 51/51/51 49/49/49
f 147/147/147 148/148/148 51/51/51
f 148/148/148 53/53/53 51/51/51
f 148/148/148 149/149/149 53/53/53
f 143/143/143 142/142/142 18/18/18
f 142/142/142 20/20/20 18/18/18
f 143/143/143 18/18/18 16/16/16
f 144/144/144 143/143/143 16/16/16
f 144/144/144 16/16/16 14/14/14
f 145/145/145 144/144/144 14/14/14
f 145/145/145 14/14/14 12/12/12
f 146/146/146 145/145/145 12/12/12
f 146/146/146 12/12/12 10/10/10
f 147/147/147 146/146/146 10/10/10
f 147/147/147 10/10/10 8/8/8
f 148/148/148 147/147/147 8/8/8
f 148/148/148 8/8/8 6/6/6
f 149/149/149 148/148/148 6/6/6
f 149/149/149 6/6/6 5/5/5
f 141/141/141 22/22/22 20/20/20
f 141/141/141 25/25/25 22/22/22
f 142/142/142 141/141/141 20/20/20
f 60/60/60 57/57/57 150/150/150
f 60/60/60 150/150/150 66/66/66
f 66/66/66 150/150/150 151/151/151
f 66/66/66 151/151/151 68/68/68
f 57/57/57 152/152/152 150/150/150
f 57/57/57 54/54/54 152/152/152
f 150/150/150 152/152/152 153/153/153
f 150/150/150 153/153/153 151/151/151
f 46/46/46 152/152/152 54/54/54
f 46/46/46 154/154/154 152/152/152
f 154/154/154 153/153/153 152/152/152
f 154/154/154 155/155/155 153/153/153
f 154/154/154 46/46/46 47/47/47
f 154/154/154 47/47/47 50/50/50
f 155/155/155 154/154/154 50/50/50
f 155/155/155 50/50/50 52/52/52
f 99/99/99 105/105/105 110/110/110
f 99/99/99 110/110/110 30/30/30
