g U_FeetL_copy
v -3.069112 -0.6867343 1.470674
v -3.071975 -0.687994 1.52943
v -3.065361 -0.7501339 1.515677
v -3.066666 -0.7452794 1.468635
v -3.073932 -0.6957996 1.425103
v -3.072904 -0.741068 1.426451
v -3.107792 -0.6984677 1.366449
v -3.111724 -0.7252835 1.359634
v -3.17065 -0.6784077 1.351856
v -3.171371 -0.6864068 1.351095
v -3.130819 -0.7343729 1.333723
v -3.169587 -0.7018203 1.330946
v -3.095614 -0.8123798 1.343711
v -3.080855 -0.8163811 1.368495
v -3.169548 -0.6354408 1.354402
v -3.112469 -0.6463795 1.365499
v -3.115816 -0.6200438 1.382856
v -3.167465 -0.615244 1.369526
v -3.168434 -0.5774472 1.390589
v -3.126332 -0.5792426 1.405
v -3.085737 -0.6244435 1.428468
v -3.105806 -0.573643 1.436721
v -3.106587 -0.5735502 1.465944
v -3.090305 -0.6091591 1.47769
v -3.102961 -0.593389 1.502006
v -3.114718 -0.569149 1.494479
v -3.134501 -0.5736194 1.528389
v -3.137994 -0.5575683 1.518568
v -3.172604 -0.5663998 1.535436
v -3.175113 -0.5516108 1.525155
v -3.212357 -0.5708308 1.520794
v -3.212463 -0.5563213 1.508416
v -3.255967 -0.6061893 1.491081
v -3.235486 -0.5657445 1.478919
v -3.242476 -0.5714688 1.442344
v -3.255147 -0.6080524 1.44207
v -3.231166 -0.575637 1.417725
v -3.241462 -0.6138086 1.408223
v -3.211257 -0.6213237 1.376734
v -3.199291 -0.5777994 1.396146
v -3.167465 -0.615244 1.369526
v -3.168434 -0.5774472 1.390589
v -3.135391 -0.6061083 1.571984
v -3.089746 -0.627683 1.540186
v -3.0917 -0.6470195 1.596093
v -3.139227 -0.625656 1.608565
v -3.102014 -0.6695396 1.7001
v -3.14253 -0.6595769 1.70244
v -3.092684 -0.6651423 1.804624
v -3.142201 -0.6554639 1.798896
v -3.101127 -0.6688167 1.862539
v -3.141894 -0.6554521 1.852181
v -3.099623 -0.6673297 1.918886
v -3.140495 -0.6456536 1.900025
v -3.18329 -0.6531712 1.798608
v -3.180014 -0.6486071 1.849133
v -3.174317 -0.6005747 1.575188
v -3.17858 -0.6231973 1.612831
v -3.189076 -0.6576821 1.701802
v -3.216057 -0.6543863 1.85281
v -3.221959 -0.657493 1.801341
v -3.259714 -0.6684914 1.860949
v -3.269763 -0.6707888 1.803968
v -3.302199 -0.7030959 1.799382
v -3.296158 -0.7194119 1.668913
v -3.271513 -0.6778295 1.687032
v -3.301729 -0.7266289 1.544585
v -3.277273 -0.6597289 1.592922
v -3.308477 -0.7660881 1.5271
v -3.303943 -0.7741011 1.65027
v -3.32201 -0.7558467 1.801721
v -3.288619 -0.6984409 1.868767
v -3.30611 -0.7390178 1.879373
v -3.308321 -0.8189731 1.634869
v -3.307771 -0.8088487 1.483066
v -3.232808 -0.6324586 1.606956
v -3.229426 -0.6634541 1.698785
v -3.33311 -0.8101735 1.805075
v -3.319665 -0.7852408 1.89889
v -3.292882 -0.7573559 1.418575
v -3.304394 -0.8040978 1.444644
v -3.276216 -0.7849594 1.366822
v -3.292645 -0.7961655 1.4036
v -3.273704 -0.8617314 1.405685
v -3.261084 -0.8148088 1.346078
v -3.284621 -0.7023664 1.414744
v -3.225973 -0.7147415 1.358879
v -3.261378 -0.6665879 1.402241
v -3.227632 -0.6870969 1.362055
v -3.171371 -0.6864068 1.351095
v -3.17065 -0.6784077 1.351856
v -3.218087 -0.732237 1.335834
v -3.169587 -0.7018203 1.330946
v -3.284696 -0.6631445 1.455601
v -3.292988 -0.6737834 1.519784
v -3.267812 -0.6363814 1.556314
v -3.268686 -0.6451756 1.429478
v -3.255759 -0.6463722 1.402567
v -3.218908 -0.6476626 1.363726
v -3.169548 -0.6354408 1.354402
v -3.220194 -0.6090416 1.572463
v -3.082974 -0.7014538 1.871007
v -3.090619 -0.6968732 1.9315
v -3.083776 -0.7289786 1.947173
v -3.072905 -0.7417757 1.881903
v -3.072995 -0.7045134 1.806692
v -3.061407 -0.7532763 1.809181
v -3.078039 -0.7097492 1.695055
v -3.072481 -0.7745672 1.678756
v -3.075088 -0.697516 1.562509
v -3.076939 -0.7607286 1.56545
v -3.050115 -0.8017317 1.810727
v -3.068791 -0.8128633 1.682336
v -3.060168 -0.78 1.901424
v -3.071284 -0.8185036 1.553325
v -3.078925 -0.7619483 1.963381
v -3.066837 -0.8099489 1.507407
v -3.060889 -0.816366 1.465235
v -3.071595 -0.8239531 1.423816
v -3.078886 -0.8430938 1.890659
v -3.085525 -0.8724648 1.42049
v -3.080855 -0.8163811 1.368495
v -3.095614 -0.8123798 1.343711
v -3.08242 -0.8718637 1.464194
v -3.078169 -0.8693652 1.504636
v -3.075703 -0.8642108 1.548153
v -3.074913 -0.8652611 1.679805
v -3.079597 -0.8722061 1.827474
v -3.071167 -0.6449983 1.480201
v -3.073823 -0.6546154 1.426033
v -3.202066 -0.5522658 1.392315
v -3.16283 -0.5528949 1.384825
v -3.168434 -0.5774472 1.390589
v -3.199291 -0.5777994 1.396146
v -3.175453 -0.8139468 1.343946
v -3.261084 -0.8148088 1.346078
v -3.218087 -0.732237 1.335834
v -3.174691 -0.7596357 1.333096
v -3.095614 -0.8123798 1.343711
v -3.130819 -0.7343729 1.333723
v -3.169587 -0.7018203 1.330946
v -3.273704 -0.8617314 1.405685
v -3.181162 -0.8691841 1.419382
v -3.239758 -0.8654782 1.478334
v -3.284694 -0.8619784 1.445201
v -3.283332 -0.8609017 1.494195
v -3.085525 -0.8724648 1.42049
v -3.08242 -0.8718637 1.464194
v -3.078169 -0.8693652 1.504636
v -3.075703 -0.8642108 1.548153
v -3.177541 -0.8649641 1.528011
v -3.178683 -0.8576607 1.62787
v -3.280103 -0.8499193 1.628049
v -3.074913 -0.8652611 1.679805
v -3.190382 -0.8729556 1.73759
v -3.079597 -0.8722061 1.827474
v -3.31612 -0.8646713 1.807881
v -3.199758 -0.8581091 1.855235
v -3.310268 -0.8256352 1.894862
v -3.078886 -0.8430938 1.890659
v -3.182394 -0.7635919 1.96676
v -3.078925 -0.7619483 1.963381
v -3.29095 -0.7601686 1.964596
v -3.180638 -0.6367199 1.890983
v -3.20791 -0.6420572 1.9004
v -3.248056 -0.6591969 1.917415
v -3.268515 -0.6876355 1.930995
v -3.2822 -0.7219627 1.947864
v -3.29095 -0.7601686 1.964596
v -3.310268 -0.8256352 1.894862
v -3.31612 -0.8646713 1.807881
v -3.280103 -0.8499193 1.628049
v -3.283332 -0.8609017 1.494195
v -3.284694 -0.8619784 1.445201
v -3.078925 -0.7619483 1.963381
v -3.083776 -0.7289786 1.947173
v -3.181454 -0.7214558 1.952353
v -3.182394 -0.7635919 1.96676
v -3.29095 -0.7601686 1.964596
v -3.2822 -0.7219627 1.947864
v -3.090619 -0.6968732 1.9315
v -3.177633 -0.6782024 1.9297
v -3.268515 -0.6876355 1.930995
v -3.20791 -0.6420572 1.9004
v -3.248056 -0.6591969 1.917415
v -3.140495 -0.6456536 1.900025
v -3.180638 -0.6367199 1.890983
v -3.099623 -0.6673297 1.918886

vn 0.9983161 0.05239264 -0.02490026
vn 0.9832096 0.1148296 0.1418213
vn 0.9939882 0.03907664 0.1022765
vn 0.991698 0.05203658 -0.1175893
vn 0.9318243 0.02813292 -0.3618176
vn 0.9393857 0.08873357 -0.3311813
vn 0.6210656 0.05101709 -0.7820964
vn 0.7624413 0.2672295 -0.5892975
vn 0.251276 0.1067926 -0.962006
vn 0.5057716 0.5934674 -0.6260924
vn 0.6427814 0.476852 -0.5995367
vn 0.5911134 0.6650399 -0.4564066
vn 0.793873 0.2483195 -0.5550703
vn 0.9160551 0.1756606 -0.3605362
vn 0.2395572 0.2225612 -0.9450285
vn 0.6794196 0.1766986 -0.7121563
vn 0.5335261 0.4933617 -0.6869819
vn 0.2592211 0.5076947 -0.8216146
vn 0.2785138 0.4936059 -0.8238831
vn 0.6350749 0.4643899 -0.6172697
vn 0.8702672 0.4157757 -0.2641319
vn 0.86356 0.3925781 -0.3164595
vn 0.9081039 0.4156429 0.05087614
vn 0.8867952 0.4586579 0.05680722
vn 0.7964231 0.5412193 0.2697996
vn 0.7804762 0.4872472 0.3917232
vn 0.5694565 0.6479535 0.5058414
vn 0.418669 0.551092 0.7218129
vn 0.03369293 0.725679 0.6872079
vn -0.1910474 0.5810884 0.7910987
vn -0.4891359 0.6843451 0.5407566
vn -0.6780106 0.5148322 0.5246421
vn -0.8221542 0.5470019 0.1576435
vn -0.8270713 0.4974966 0.2616298
vn -0.9200762 0.3841083 -0.07694547
vn -0.9058885 0.3565325 -0.2285837
vn -0.6923812 0.3793427 -0.6137649
vn -0.7260176 0.4049604 -0.5557927
vn -0.4054841 0.4706238 -0.7836427
vn -0.2927303 0.4652495 -0.8353753
vn -0.1940755 0.4942456 -0.8473818
vn -0.1610302 0.4772676 -0.8638778
vn 0.4241059 0.7652215 0.4843245
vn 0.8413737 0.4785863 0.2510886
vn 0.7987789 0.56892 0.1956588
vn 0.2371671 0.9026036 0.359247
vn 0.6529937 0.7510778 0.0973717
vn 0.1515588 0.9828296 0.1052427
vn 0.5588602 0.8292618 0.0003394703
vn 0.1323553 0.9910666 -0.01640815
vn 0.5977517 0.8001429 0.04964143
vn 0.2756096 0.9574733 -0.08534732
vn 0.6131393 0.7842391 -0.09502332
vn 0.3461865 0.9129678 -0.2159739
vn -0.04230344 0.9978746 -0.04956455
vn 0.06764284 0.9809006 -0.1823692
vn -0.06575359 0.8191482 0.5698004
vn -0.08780877 0.9048228 0.4166356
vn -0.04314879 0.9814679 0.1867057
vn -0.2348269 0.964036 -0.1244627
vn -0.2190318 0.9752255 -0.03098823
vn -0.5122641 0.8588271 -0.001259804
vn -0.5575621 0.8292229 -0.03890778
vn -0.8887056 0.4562578 -0.04506985
vn -0.9297097 0.3676687 -0.02143626
vn -0.7414454 0.6648311 0.09087645
vn -0.9702108 0.2421819 0.006236472
vn -0.8549222 0.4904172 0.1691125
vn -0.9931411 0.1126825 -0.03119937
vn -0.9793392 0.1854319 -0.08068149
vn -0.9557626 0.2936696 -0.01661059
vn -0.8472372 0.5136197 0.1355877
vn -0.9107541 0.3718324 0.1796319
vn -0.9608169 -0.2750478 -0.03434332
vn -0.9826745 -0.1790696 -0.04780079
vn -0.3667369 0.873815 0.3192982
vn -0.2414235 0.9679036 0.06983812
vn -0.9877099 -0.1324112 -0.08304498
vn -0.9771343 0.03173266 0.2102422
vn -0.9728011 0.1208727 -0.1976053
vn -0.9622446 -0.1256045 -0.241472
vn -0.8120738 0.150998 -0.5636805
vn -0.8981671 -0.2216062 -0.3797191
vn -0.8988802 -0.2631575 -0.3503748
vn -0.7965904 0.01616181 -0.6043033
vn -0.9084918 0.219222 -0.3557869
vn -0.6027093 0.3230924 -0.729625
vn -0.7353745 0.1955102 -0.6488452
vn -0.4920033 0.1259865 -0.8614292
vn -0.3738433 0.4749343 -0.7966671
vn -0.1937521 0.07672092 -0.9780461
vn -0.5912762 0.4499474 -0.669283
vn -0.4801362 0.6756782 -0.5594
vn -0.9404481 0.3288535 -0.08609767
vn -0.9370339 0.3466999 0.04203148
vn -0.7556771 0.6359599 0.1565477
vn -0.8688095 0.4043182 -0.2858268
vn -0.7329739 0.2949443 -0.6129903
vn -0.4505436 0.2673612 -0.8517797
vn -0.2343118 0.3331216 -0.9133061
vn -0.4569901 0.7894315 0.409827
vn 0.9197266 0.3751718 0.1155389
vn 0.9326674 0.3568684 0.05269174
vn 0.9636757 0.2430993 0.1105969
vn 0.9494034 0.2895581 0.1216118
vn 0.9309496 0.3651438 0.001745326
vn 0.9768513 0.2117696 -0.03025077
vn 0.9666705 0.2560123 0.002404458
vn 0.9937963 0.09120591 -0.06364278
vn 0.9910393 0.1272038 0.0407448
vn 0.9982122 0.04412774 0.04031184
vn 0.9930656 -0.1161295 -0.01829635
vn 0.9976652 0.001543477 -0.06827821
vn 0.9817351 -0.06854982 0.1774743
vn 0.9988402 -0.0415644 0.02430509
vn 0.9668574 0.03150232 0.2533659
vn 0.9866716 -0.1165063 0.1136024
vn 0.990068 -0.132805 -0.04613235
vn 0.980453 -0.05219227 -0.1897047
vn 0.9156446 -0.3143806 0.250519
vn 0.9142975 -0.3417103 -0.2174722
vn 0.8758305 -0.365312 -0.3153857
vn 0.6948633 -0.5191842 -0.4976071
vn 0.9305629 -0.3597434 -0.06809705
vn 0.9762099 -0.2142689 0.03321419
vn 0.9954021 -0.09438966 -0.01628859
vn 0.9773658 -0.2093784 -0.03027833
vn 0.9298742 -0.3570448 0.08861733
vn 0.9601307 0.273625 0.05725735
vn 0.9263514 0.1895962 -0.325463
vn -0.1808418 -0.1751918 -0.967783
vn -0.1871649 -0.1838293 -0.9649746
vn -0.1808418 -0.1751918 -0.967783
vn -0.1730125 -0.164509 -0.9710836
vn -0.01261959 -0.6413864 -0.7671142
vn -0.01726269 -0.4689237 -0.8830699
vn -0.05081947 -0.09830929 -0.9938574
vn -0.01434316 -0.1194872 -0.9927321
vn 0.02677923 -0.4823307 -0.8755798
vn 0.01859534 -0.06316123 -0.9978301
vn -0.02687162 -0.1167032 -0.9928033
vn -0.02104276 -0.9106504 -0.4126415
vn -0.02407042 -0.9295344 -0.3679487
vn -0.04621269 -0.9981143 0.04040122
vn -0.07825825 -0.9969328 0.0008311112
vn -0.07127427 -0.9945216 0.07646473
vn -0.01973026 -0.9349978 -0.3541042
vn -0.03692847 -0.9985166 0.04001073
vn -0.03920001 -0.9948177 0.09381446
vn -0.006507417 -0.9995098 0.03062549
vn -0.0449377 -0.9981254 0.04154915
vn -0.07994328 -0.9961476 -0.03604425
vn -0.07612918 -0.9968986 -0.01993695
vn -0.006131159 -0.9993957 -0.03421457
vn -0.03290546 -0.9989425 0.03211161
vn -0.07671026 -0.9917379 0.1028177
vn -0.08276353 -0.9955497 0.04506564
vn -0.02130764 -0.9041173 0.4267526
vn -0.04042823 -0.8006479 0.5977696
vn -0.05356545 -0.8599245 0.5076027
vn -0.02758448 -0.7348844 0.6776312
vn 0.03490555 -0.666981 0.7442566
vn -0.03655839 -0.7235005 0.6893551
vn -0.03690168 0.9666883 -0.2532824
vn -0.3509989 0.9262002 -0.1376693
vn -0.6419529 0.7659702 0.03443848
vn -0.8270024 0.5344753 0.1743647
vn -0.8920537 0.3971144 0.2157324
vn -0.9287401 0.1775782 0.3254348
vn -0.9184995 -0.2446467 0.3106552
vn -0.9566263 -0.2903495 -0.0237335
vn -0.8495176 -0.5172766 -0.1036561
vn -0.8562002 -0.5164622 0.01371607
vn -0.9274887 -0.3575317 -0.1092513
vn 0.05040209 0.3792479 0.9239214
vn 0.08183135 0.4502942 0.8891225
vn 0.02053479 0.4095211 0.9120696
vn 0.008139917 0.3233711 0.9462371
vn -0.02452663 0.3638617 0.9311301
vn -0.0400332 0.4432764 0.8954906
vn 0.06362203 0.4946727 0.8667476
vn 0.01676252 0.5373209 0.8432112
vn -0.01086367 0.5147409 0.857277
vn 0.01953282 0.6104627 0.7918041
vn 0.294387 0.2310458 0.9273372
vn 0.0397058 0.6073499 0.7934415
vn 0.0462638 0.8056223 0.5906202
vn -0.2564465 0.3123695 0.9146914


usemtl Copy Mat
usemap Copy Mat
f 1/1/1 2/2/2 3/3/3
f 1/1/1 3/3/3 4/4/4
f 5/5/5 1/1/1 4/4/4
f 5/5/5 4/4/4 6/6/6
f 7/7/7 5/5/5 6/6/6
f 7/7/7 6/6/6 8/8/8
f 9/9/9 7/7/7 8/8/8
f 9/9/9 8/8/8 10/10/10
f 11/11/11 10/10/10 8/8/8
f 11/11/11 12/12/12 10/10/10
f 8/8/8 13/13/13 11/11/11
f 8/8/8 14/14/14 13/13/13
f 14/14/14 8/8/8 6/6/6
f 7/7/7 9/9/9 15/15/15
f 7/7/7 15/15/15 16/16/16
f 5/5/5 7/7/7 16/16/16
f 15/15/15 17/17/17 16/16/16
f 15/15/15 18/18/18 17/17/17
f 19/19/19 17/17/17 18/18/18
f 19/19/19 20/20/20 17/17/17
f 20/20/20 21/21/21 17/17/17
f 20/20/20 22/22/22 21/21/21
f 21/21/21 22/22/22 23/23/23
f 21/21/21 23/23/23 24/24/24
f 23/23/23 25/25/25 24/24/24
f 23/23/23 26/26/26 25/25/25
f 26/26/26 27/27/27 25/25/25
f 26/26/26 28/28/28 27/27/27
f 28/28/28 29/29/29 27/27/27
f 28/28/28 30/30/30 29/29/29
f 30/30/30 31/31/31 29/29/29
f 30/30/30 32/32/32 31/31/31
f 32/32/32 33/33/33 31/31/31
f 32/32/32 34/34/34 33/33/33
f 35/35/35 33/33/33 34/34/34
f 35/35/35 36/36/36 33/33/33
f 36/36/36 35/35/35 37/37/37
f 36/36/36 37/37/37 38/38/38
f 37/37/37 39/39/39 38/38/38
f 37/37/37 40/40/40 39/39/39
f 40/40/40 41/41/41 39/39/39
f 40/40/40 42/42/42 41/41/41
f 43/43/43 27/27/27 29/29/29
f 27/27/27 43/43/43 44/44/44
f 43/43/43 45/45/45 44/44/44
f 43/43/43 46/46/46 45/45/45
f 47/47/47 45/45/45 46/46/46
f 47/47/47 46/46/46 48/48/48
f 49/49/49 47/47/47 48/48/48
f 49/49/49 48/48/48 50/50/50
f 51/51/51 49/49/49 50/50/50
f 51/51/51 50/50/50 52/52/52
f 53/53/53 51/51/51 52/52/52
f 53/53/53 52/52/52 54/54/54
f 55/55/55 52/52/52 50/50/50
f 55/55/55 56/56/56 52/52/52
f 56/56/56 54/54/54 52/52/52
f 46/46/46 43/43/43 57/57/57
f 46/46/46 57/57/57 58/58/58
f 59/59/59 48/48/48 46/46/46
f 59/59/59 46/46/46 58/58/58
f 59/59/59 55/55/55 50/50/50
f 59/59/59 50/50/50 48/48/48
f 55/55/55 60/60/60 56/56/56
f 55/55/55 61/61/61 60/60/60
f 61/61/61 62/62/62 60/60/60
f 61/61/61 63/63/63 62/62/62
f 64/64/64 62/62/62 63/63/63
f 65/65/65 64/64/64 63/63/63
f 65/65/65 63/63/63 66/66/66
f 67/67/67 65/65/65 66/66/66
f 67/67/67 66/66/66 68/68/68
f 65/65/65 67/67/67 69/69/69
f 65/65/65 69/69/69 70/70/70
f 64/64/64 65/65/65 70/70/70
f 64/64/64 70/70/70 71/71/71
f 64/64/64 72/72/72 62/62/62
f 72/72/72 64/64/64 71/71/71
f 72/72/72 71/71/71 73/73/73
f 69/69/69 74/74/74 70/70/70
f 69/69/69 75/75/75 74/74/74
f 76/76/76 68/68/68 66/66/66
f 76/76/76 66/66/66 77/77/77
f 77/77/77 66/66/66 63/63/63
f 77/77/77 63/63/63 61/61/61
f 70/70/70 74/74/74 78/78/78
f 70/70/70 78/78/78 71/71/71
f 71/71/71 78/78/78 79/79/79
f 71/71/71 79/79/79 73/73/73
f 75/75/75 69/69/69 80/80/80
f 75/75/75 80/80/80 81/81/81
f 82/82/82 81/81/81 80/80/80
f 82/82/82 83/83/83 81/81/81
f 82/82/82 84/84/84 83/83/83
f 81/81/81 83/83/83 84/84/84
f 82/82/82 85/85/85 84/84/84
f 82/82/82 80/80/80 86/86/86
f 82/82/82 86/86/86 87/87/87
f 88/88/88 87/87/87 86/86/86
f 88/88/88 89/89/89 87/87/87
f 89/89/89 90/90/90 87/87/87
f 89/89/89 91/91/91 90/90/90
f 82/82/82 87/87/87 92/92/92
f 82/82/82 92/92/92 85/85/85
f 90/90/90 92/92/92 87/87/87
f 90/90/90 93/93/93 92/92/92
f 69/69/69 86/86/86 80/80/80
f 69/69/69 67/67/67 86/86/86
f 94/94/94 86/86/86 67/67/67
f 94/94/94 67/67/67 95/95/95
f 95/95/95 67/67/67 68/68/68
f 95/95/95 68/68/68 96/96/96
f 94/94/94 95/95/95 96/96/96
f 94/94/94 96/96/96 33/33/33
f 33/33/33 97/97/97 94/94/94
f 86/86/86 94/94/94 97/97/97
f 86/86/86 97/97/97 88/88/88
f 33/33/33 36/36/36 97/97/97
f 38/38/38 97/97/97 36/36/36
f 38/38/38 98/98/98 97/97/97
f 99/99/99 98/98/98 38/38/38
f 99/99/99 38/38/38 39/39/39
f 39/39/39 100/100/100 99/99/99
f 39/39/39 41/41/41 100/100/100
f 33/33/33 96/96/96 101/101/101
f 33/33/33 101/101/101 31/31/31
f 31/31/31 101/101/101 57/57/57
f 31/31/31 57/57/57 29/29/29
f 43/43/43 29/29/29 57/57/57
f 101/101/101 58/58/58 57/57/57
f 101/101/101 76/76/76 58/58/58
f 96/96/96 76/76/76 101/101/101
f 96/96/96 68/68/68 76/76/76
f 59/59/59 58/58/58 76/76/76
f 59/59/59 76/76/76 77/77/77
f 55/55/55 59/59/59 77/77/77
f 55/55/55 77/77/77 61/61/61
f 91/91/91 99/99/99 100/100/100
f 91/91/91 89/89/89 99/99/99
f 89/89/89 98/98/98 99/99/99
f 89/89/89 88/88/88 98/98/98
f 97/97/97 98/98/98 88/88/88
f 102/102/102 103/103/103 104/104/104
f 102/102/102 104/104/104 105/105/105
f 106/106/106 102/102/102 105/105/105
f 106/106/106 105/105/105 107/107/107
f 108/108/108 106/106/106 107/107/107
f 108/108/108 107/107/107 109/109/109
f 110/110/110 108/108/108 109/109/109
f 110/110/110 109/109/109 111/111/111
f 109/109/109 107/107/107 112/112/112
f 109/109/109 112/112/112 113/113/113
f 111/111/111 109/109/109 113/113/113
f 107/107/107 105/105/105 114/114/114
f 107/107/107 114/114/114 112/112/112
f 111/111/111 113/113/113 115/115/115
f 105/105/105 104/104/104 116/116/116
f 105/105/105 116/116/116 114/114/114
f 3/3/3 111/111/111 115/115/115
f 3/3/3 115/115/115 117/117/117
f 3/3/3 117/117/117 118/118/118
f 3/3/3 118/118/118 4/4/4
f 4/4/4 118/118/118 119/119/119
f 4/4/4 119/119/119 6/6/6
f 14/14/14 6/6/6 119/119/119
f 2/2/2 110/110/110 111/111/111
f 2/2/2 111/111/111 3/3/3
f 120/120/120 114/114/114 116/116/116
f 118/118/118 121/121/121 119/119/119
f 122/122/122 119/119/119 121/121/121
f 122/122/122 121/121/121 123/123/123
f 118/118/118 124/124/124 121/121/121
f 125/125/125 124/124/124 118/118/118
f 125/125/125 118/118/118 117/117/117
f 125/125/125 117/117/117 115/115/115
f 125/125/125 115/115/115 126/126/126
f 127/127/127 126/126/126 115/115/115
f 127/127/127 115/115/115 113/113/113
f 112/112/112 127/127/127 113/113/113
f 112/112/112 128/128/128 127/127/127
f 114/114/114 120/120/120 128/128/128
f 114/114/114 128/128/128 112/112/112
f 110/110/110 2/2/2 44/44/44
f 110/110/110 44/44/44 45/45/45
f 108/108/108 110/110/110 45/45/45
f 108/108/108 45/45/45 47/47/47
f 106/106/106 108/108/108 47/47/47
f 106/106/106 47/47/47 49/49/49
f 102/102/102 106/106/106 49/49/49
f 102/102/102 49/49/49 51/51/51
f 103/103/103 102/102/102 51/51/51
f 103/103/103 51/51/51 53/53/53
f 27/27/27 44/44/44 25/25/25
f 44/44/44 24/24/24 25/25/25
f 44/44/44 129/129/129 24/24/24
f 21/21/21 24/24/24 129/129/129
f 21/21/21 129/129/129 130/130/130
f 17/17/17 21/21/21 130/130/130
f 17/17/17 130/130/130 16/16/16
f 1/1/1 130/130/130 129/129/129
f 2/2/2 1/1/1 129/129/129
f 2/2/2 129/129/129 44/44/44
f 1/1/1 5/5/5 130/130/130
f 5/5/5 16/16/16 130/130/130
f 131/131/131 132/132/132 133/133/133
f 131/131/131 133/133/133 134/134/134
f 135/135/135 136/136/136 137/137/137
f 135/135/135 137/137/137 138/138/138
f 138/138/138 139/139/139 135/135/135
f 138/138/138 140/140/140 139/139/139
f 137/137/137 140/140/140 138/138/138
f 137/137/137 141/141/141 140/140/140
f 142/142/142 136/136/136 135/135/135
f 142/142/142 135/135/135 143/143/143
f 142/142/142 143/143/143 144/144/144
f 142/142/142 144/144/144 145/145/145
f 145/145/145 144/144/144 146/146/146
f 147/147/147 144/144/144 143/143/143
f 147/147/147 143/143/143 135/135/135
f 147/147/147 135/135/135 139/139/139
f 147/147/147 148/148/148 144/144/144
f 149/149/149 144/144/144 148/148/148
f 149/149/149 150/150/150 144/144/144
f 151/151/151 146/146/146 144/144/144
f 151/151/151 144/144/144 150/150/150
f 152/152/152 146/146/146 151/151/151
f 152/152/152 153/153/153 146/146/146
f 154/154/154 152/152/152 151/151/151
f 154/154/154 151/151/151 150/150/150
f 154/154/154 155/155/155 152/152/152
f 154/154/154 156/156/156 155/155/155
f 152/152/152 155/155/155 157/157/157
f 152/152/152 157/157/157 153/153/153
f 157/157/157 155/155/155 158/158/158
f 157/157/157 158/158/158 159/159/159
f 155/155/155 156/156/156 160/160/160
f 155/155/155 160/160/160 158/158/158
f 161/161/161 158/158/158 160/160/160
f 161/161/161 159/159/159 158/158/158
f 161/161/161 160/160/160 162/162/162
f 161/161/161 163/163/163 159/159/159
f 56/56/56 164/164/164 54/54/54
f 60/60/60 164/164/164 56/56/56
f 60/60/60 165/165/165 164/164/164
f 62/62/62 165/165/165 60/60/60
f 62/62/62 166/166/166 165/165/165
f 72/72/72 166/166/166 62/62/62
f 72/72/72 167/167/167 166/166/166
f 72/72/72 168/168/168 167/167/167
f 72/72/72 73/73/73 168/168/168
f 169/169/169 168/168/168 73/73/73
f 169/169/169 73/73/73 79/79/79
f 169/169/169 79/79/79 170/170/170
f 79/79/79 171/171/171 170/170/170
f 79/79/79 78/78/78 171/171/171
f 78/78/78 172/172/172 171/171/171
f 78/78/78 74/74/74 172/172/172
f 173/173/173 172/172/172 74/74/74
f 173/173/173 74/74/74 75/75/75
f 174/174/174 173/173/173 75/75/75
f 174/174/174 75/75/75 81/81/81
f 81/81/81 84/84/84 174/174/174
f 175/175/175 176/176/176 177/177/177
f 175/175/175 177/177/177 178/178/178
f 179/179/179 178/178/178 177/177/177
f 179/179/179 177/177/177 180/180/180
f 181/181/181 177/177/177 176/176/176
f 181/181/181 182/182/182 177/177/177
f 182/182/182 180/180/180 177/177/177
f 182/182/182 183/183/183 180/180/180
f 184/184/184 183/183/183 182/182/182
f 184/184/184 185/185/185 183/183/183
f 186/186/186 184/184/184 182/182/182
f 181/181/181 186/186/186 182/182/182
f 186/186/186 187/187/187 184/184/184
f 181/181/181 188/188/188 186/186/186
