g U_ThighR_copy
v -2.997151 0.9497755 1.447314
v -2.951879 0.9664669 1.391732
v -2.957279 0.9308133 1.397393
v -2.999863 0.9310793 1.455292
v -3.010282 0.9446818 1.522462
v -3.010311 0.9310888 1.526232
v -3.010328 0.8040985 1.538588
v -3.000138 0.8039213 1.459893
v -2.962654 0.8030441 1.397958
v -3.004773 0.6387247 1.523661
v -2.995755 0.6390831 1.449788
v -2.957814 0.6397559 1.395794
v -3.00003 0.5662973 1.518988
v -2.991404 0.5668954 1.450778
v -2.95188 0.5677367 1.401501
v -2.9693 0.3265911 1.50499
v -2.959174 0.3271616 1.462268
v -2.929195 0.3270154 1.431752
v -2.964929 0.2918537 1.502064
v -2.953956 0.2920926 1.46151
v -2.927035 0.2919714 1.432569
v -2.957361 0.2100743 1.485172
v -2.94881 0.210156 1.446785
v -2.923864 0.2089749 1.418372
v -2.889446 0.208533 1.409551
v -2.88812 0.2918342 1.42287
v -2.854336 0.2078036 1.416819
v -2.852583 0.2913895 1.438833
v -2.826433 0.2917357 1.467392
v -2.825034 0.3270458 1.472985
v -2.851021 0.3270732 1.440422
v -2.800204 0.567247 1.480222
v -2.834175 0.5673577 1.423944
v -2.796579 0.6393673 1.479771
v -2.834121 0.6392555 1.420251
v -2.793062 0.803076 1.486129
v -2.831666 0.8027136 1.425283
v -2.790467 0.9173141 1.499243
v -2.822277 0.9188238 1.440505
v -2.817347 1.002683 1.438637
v -2.792889 1.007465 1.501075
v -2.787798 0.9171574 1.566189
v -2.793502 1.00521 1.570466
v -2.807368 0.9154054 1.628363
v -2.814797 1.000663 1.635871
v -2.859209 0.9309909 1.688552
v -2.867456 0.9912835 1.693068
v -2.927762 0.9310985 1.702769
v -2.93372 0.9694743 1.707062
v -2.988329 0.930854 1.667446
v -2.991061 0.9499162 1.672892
v -3.0096 0.9309548 1.598255
v -3.009212 0.9451412 1.599571
v -2.785001 0.8004273 1.557593
v -2.802411 0.7989807 1.618385
v -2.84593 0.8025138 1.676542
v -2.91551 0.8034415 1.694791
v -2.974999 0.8022265 1.672215
v -3.002392 0.8041327 1.618403
v -3.010311 0.9310888 1.526232
v -3.010328 0.8040985 1.538588
v -2.78837 0.6398838 1.551009
v -2.808534 0.6411753 1.618726
v -2.8504 0.6434348 1.666238
v -2.90674 0.6426996 1.684818
v -2.963285 0.6409181 1.662187
v -2.996359 0.6388033 1.599326
v -3.004773 0.6387247 1.523661
v -2.792386 0.5674292 1.546355
v -2.810449 0.5683033 1.610131
v -2.849847 0.569656 1.659927
v -2.908608 0.5712553 1.670798
v -2.962662 0.5684719 1.647597
v -2.992084 0.5663372 1.587606
v -3.00003 0.5662973 1.518988
v -2.81648 0.3271096 1.514659
v -2.829738 0.3276184 1.555479
v -2.855525 0.3279986 1.588449
v -2.897228 0.3261226 1.59991
v -2.939451 0.3263068 1.583953
v -2.9647 0.3271774 1.548834
v -2.9693 0.3265911 1.50499
v -2.819661 0.2921925 1.506137
v -2.830948 0.2925111 1.544638
v -2.854382 0.2919577 1.577923
v -2.895222 0.29203 1.585988
v -2.936177 0.2913471 1.575237
v -2.960114 0.2920222 1.543893
v -2.964929 0.2918537 1.502064
v -2.824603 0.2099771 1.439538
v -2.813807 0.2101229 1.476402
v -2.825696 0.2102497 1.513006
v -2.847358 0.2104306 1.543904
v -2.883269 0.2092806 1.560223
v -2.924084 0.2080494 1.555292
v -2.951021 0.2095998 1.524586
v -2.957361 0.2100743 1.485172
v -2.888534 0.3271809 1.423003
v -2.891086 0.5675476 1.392868
v -2.894649 0.6395049 1.389606
v -2.894633 0.8024663 1.39212
v -2.883785 0.9309436 1.399057
v -2.885497 0.9906627 1.394833

vn -0.8617434 -0.007935712 -0.5072822
vn -0.1850789 -0.07888728 -0.9795522
vn -0.4902611 0.001374214 -0.8715745
vn -0.9553073 -0.01456713 -0.2952555
vn -0.9870299 0.02611507 -0.1583989
vn -0.9891952 -0.01639211 -0.1456848
vn -0.9909889 -0.0135567 -0.1332564
vn -0.9457039 -0.004736297 -0.3249947
vn -0.5312825 0.009153261 -0.8471453
vn -0.9918844 -0.02682026 -0.1242824
vn -0.9300618 -0.02440577 -0.3665915
vn -0.5083829 -0.04128577 -0.8601409
vn -0.9875255 -0.09599049 -0.1248169
vn -0.9220912 -0.1200101 -0.3678932
vn -0.489604 -0.1395712 -0.8607019
vn -0.9773192 -0.1261929 -0.1700662
vn -0.8383603 -0.1414953 -0.5264326
vn -0.4837036 -0.1309846 -0.8653749
vn -0.9643644 -0.07462368 -0.2538354
vn -0.8937138 -0.02679534 -0.4478366
vn -0.511916 0.09205131 -0.8540893
vn -0.9703147 -0.02899026 -0.2401017
vn -0.8440477 0.04724831 -0.5341827
vn -0.5248244 0.1239941 -0.8421311
vn -0.09981474 0.1578631 -0.9824033
vn 0.08003162 0.1276538 -0.9885846
vn 0.4927415 0.2094229 -0.8445992
vn 0.589223 0.1182393 -0.799272
vn 0.852389 0.1287336 -0.5068143
vn 0.9471847 -0.07232685 -0.312426
vn 0.6594439 -0.08823287 -0.746558
vn 0.929178 -0.08026903 -0.3608119
vn 0.687876 -0.07396746 -0.7220494
vn 0.9540508 -0.02015948 -0.2989658
vn 0.6780097 0.001745967 -0.7350509
vn 0.9416372 0.006112904 -0.3365741
vn 0.6919111 0.02135715 -0.7216668
vn 0.9419234 0.003877347 -0.3358055
vn 0.7060731 -0.01238088 -0.7080308
vn 0.8032436 -0.02799445 -0.5949924
vn 0.9902024 0.04212617 -0.1331338
vn 0.9976947 0.02358227 0.06363305
vn 0.976709 0.05618296 0.2070819
vn 0.8990488 0.01371365 0.4376336
vn 0.8316302 0.036401 0.5541356
vn 0.6227191 -0.01232915 0.7823483
vn 0.4435629 -0.01421089 0.8961306
vn -0.006549615 -0.07924089 0.996834
vn -0.1992668 -0.1692102 0.9652257
vn -0.6604435 -0.09922634 0.7442906
vn -0.8309715 -0.2023981 0.5181904
vn -0.967537 -0.05205734 0.2473097
vn -0.9707556 0.004319189 0.2400311
vn 0.997974 -0.005432691 0.06339096
vn 0.8879461 -0.01584265 0.4596747
vn 0.5454393 -0.04372813 0.8370088
vn -0.05214713 -0.06007601 0.9968308
vn -0.6813188 -0.06316253 0.7292566
vn -0.9643794 -0.04614424 0.260467
vn -0.9981633 -0.02100291 0.05682245
vn -0.9942347 -0.02994187 0.1029605
vn 0.9936749 -0.03764882 0.1057952
vn 0.8714874 -0.053668 0.4874724
vn 0.5091096 -0.06643196 0.8581342
vn -0.09170825 -0.09774195 0.9909773
vn -0.7149997 -0.113283 0.6898857
vn -0.9642538 -0.07146032 0.2551627
vn -0.9921149 -0.05748516 0.1113711
vn 0.9943518 -0.0949097 0.04750501
vn 0.8858629 -0.1396168 0.442441
vn 0.5513304 -0.2117752 0.806961
vn -0.04853761 -0.2623516 0.9637509
vn -0.6407137 -0.2309723 0.7322143
vn -0.935473 -0.1520553 0.3190134
vn -0.9862021 -0.1225458 0.111301
vn 0.9838079 -0.1168309 0.1359139
vn 0.8365349 -0.1840801 0.5160658
vn 0.4157946 -0.2587134 0.8718843
vn -0.1554353 -0.2873192 0.9451389
vn -0.7075918 -0.2356867 0.6661574
vn -0.9518197 -0.1543481 0.264983
vn -0.9853084 -0.1338174 0.1061138
vn 0.9998463 0.01553318 0.008121266
vn 0.8981128 -0.1108352 0.425569
vn 0.567969 -0.2613743 0.7804452
vn 0.03519271 -0.3252675 0.944967
vn -0.4644636 -0.2749614 0.8418254
vn -0.8930847 -0.1973261 0.4043044
vn -0.9828475 -0.1300585 0.1307508
vn 0.8838697 0.1847079 -0.4297176
vn 0.9935988 0.02628784 0.1098654
vn 0.8631021 -0.1324738 0.4873454
vn 0.4725444 -0.2683604 0.8394549
vn 0.01195954 -0.2736457 0.9617562
vn -0.5707189 -0.2591064 0.7791942
vn -0.9336981 -0.1696189 0.3153368
vn -0.9800498 -0.1229542 0.1561553
vn 0.0232961 -0.1146355 -0.9931344
vn 0.2075837 -0.09868086 -0.9732271
vn 0.1568259 -0.002201819 -0.9876239
vn 0.2236809 0.01899266 -0.9744774
vn 0.3295997 0.006112638 -0.944101
vn 0.4329973 -0.05455138 -0.899743


usemtl Copy Mat
usemap Copy Mat
f 1/1/1 2/2/2 3/3/3
f 1/1/1 3/3/3 4/4/4
f 5/5/5 1/1/1 4/4/4
f 5/5/5 4/4/4 6/6/6
f 4/4/4 7/7/7 6/6/6
f 4/4/4 8/8/8 7/7/7
f 3/3/3 8/8/8 4/4/4
f 3/3/3 9/9/9 8/8/8
f 8/8/8 10/10/10 7/7/7
f 8/8/8 11/11/11 10/10/10
f 9/9/9 11/11/11 8/8/8
f 9/9/9 12/12/12 11/11/11
f 11/11/11 13/13/13 10/10/10
f 11/11/11 14/14/14 13/13/13
f 12/12/12 14/14/14 11/11/11
f 12/12/12 15/15/15 14/14/14
f 14/14/14 16/16/16 13/13/13
f 14/14/14 17/17/17 16/16/16
f 15/15/15 17/17/17 14/14/14
f 15/15/15 18/18/18 17/17/17
f 17/17/17 19/19/19 16/16/16
f 17/17/17 20/20/20 19/19/19
f 18/18/18 20/20/20 17/17/17
f 18/18/18 21/21/21 20/20/20
f 20/20/20 22/22/22 19/19/19
f 20/20/20 23/23/23 22/22/22
f 21/21/21 23/23/23 20/20/20
f 21/21/21 24/24/24 23/23/23
f 21/21/21 25/25/25 24/24/24
f 21/21/21 26/26/26 25/25/25
f 18/18/18 26/26/26 21/21/21
f 27/27/27 25/25/25 26/26/26
f 27/27/27 26/26/26 28/28/28
f 29/29/29 27/27/27 28/28/28
f 30/30/30 29/29/29 28/28/28
f 30/30/30 28/28/28 31/31/31
f 32/32/32 30/30/30 31/31/31
f 32/32/32 31/31/31 33/33/33
f 34/34/34 32/32/32 33/33/33
f 34/34/34 33/33/33 35/35/35
f 36/36/36 34/34/34 35/35/35
f 36/36/36 35/35/35 37/37/37
f 38/38/38 36/36/36 37/37/37
f 38/38/38 37/37/37 39/39/39
f 40/40/40 38/38/38 39/39/39
f 40/40/40 41/41/41 38/38/38
f 41/41/41 42/42/42 38/38/38
f 42/42/42 36/36/36 38/38/38
f 41/41/41 43/43/43 42/42/42
f 43/43/43 44/44/44 42/42/42
f 43/43/43 45/45/45 44/44/44
f 45/45/45 46/46/46 44/44/44
f 45/45/45 47/47/47 46/46/46
f 47/47/47 48/48/48 46/46/46
f 47/47/47 49/49/49 48/48/48
f 49/49/49 50/50/50 48/48/48
f 49/49/49 51/51/51 50/50/50
f 51/51/51 52/52/52 50/50/50
f 51/51/51 53/53/53 52/52/52
f 44/44/44 54/54/54 42/42/42
f 42/42/42 54/54/54 36/36/36
f 44/44/44 55/55/55 54/54/54
f 46/46/46 55/55/55 44/44/44
f 46/46/46 56/56/56 55/55/55
f 48/48/48 56/56/56 46/46/46
f 48/48/48 57/57/57 56/56/56
f 50/50/50 57/57/57 48/48/48
f 50/50/50 58/58/58 57/57/57
f 52/52/52 58/58/58 50/50/50
f 52/52/52 59/59/59 58/58/58
f 60/60/60 59/59/59 52/52/52
f 60/60/60 61/61/61 59/59/59
f 54/54/54 34/34/34 36/36/36
f 54/54/54 62/62/62 34/34/34
f 55/55/55 62/62/62 54/54/54
f 55/55/55 63/63/63 62/62/62
f 56/56/56 63/63/63 55/55/55
f 56/56/56 64/64/64 63/63/63
f 57/57/57 64/64/64 56/56/56
f 57/57/57 65/65/65 64/64/64
f 58/58/58 65/65/65 57/57/57
f 58/58/58 66/66/66 65/65/65
f 59/59/59 66/66/66 58/58/58
f 59/59/59 67/67/67 66/66/66
f 61/61/61 67/67/67 59/59/59
f 61/61/61 68/68/68 67/67/67
f 62/62/62 32/32/32 34/34/34
f 62/62/62 69/69/69 32/32/32
f 63/63/63 69/69/69 62/62/62
f 63/63/63 70/70/70 69/69/69
f 64/64/64 70/70/70 63/63/63
f 64/64/64 71/71/71 70/70/70
f 65/65/65 71/71/71 64/64/64
f 65/65/65 72/72/72 71/71/71
f 66/66/66 72/72/72 65/65/65
f 66/66/66 73/73/73 72/72/72
f 67/67/67 73/73/73 66/66/66
f 67/67/67 74/74/74 73/73/73
f 68/68/68 74/74/74 67/67/67
f 68/68/68 75/75/75 74/74/74
f 69/69/69 30/30/30 32/32/32
f 69/69/69 76/76/76 30/30/30
f 70/70/70 76/76/76 69/69/69
f 70/70/70 77/77/77 76/76/76
f 71/71/71 77/77/77 70/70/70
f 71/71/71 78/78/78 77/77/77
f 72/72/72 78/78/78 71/71/71
f 72/72/72 79/79/79 78/78/78
f 73/73/73 79/79/79 72/72/72
f 73/73/73 80/80/80 79/79/79
f 74/74/74 80/80/80 73/73/73
f 74/74/74 81/81/81 80/80/80
f 75/75/75 81/81/81 74/74/74
f 75/75/75 82/82/82 81/81/81
f 76/76/76 29/29/29 30/30/30
f 76/76/76 83/83/83 29/29/29
f 77/77/77 83/83/83 76/76/76
f 77/77/77 84/84/84 83/83/83
f 78/78/78 84/84/84 77/77/77
f 78/78/78 85/85/85 84/84/84
f 79/79/79 85/85/85 78/78/78
f 79/79/79 86/86/86 85/85/85
f 80/80/80 86/86/86 79/79/79
f 80/80/80 87/87/87 86/86/86
f 81/81/81 87/87/87 80/80/80
f 81/81/81 88/88/88 87/87/87
f 82/82/82 88/88/88 81/81/81
f 82/82/82 89/89/89 88/88/88
f 83/83/83 90/90/90 29/29/29
f 29/29/29 90/90/90 27/27/27
f 83/83/83 91/91/91 90/90/90
f 84/84/84 91/91/91 83/83/83
f 84/84/84 92/92/92 91/91/91
f 85/85/85 92/92/92 84/84/84
f 85/85/85 93/93/93 92/92/92
f 86/86/86 93/93/93 85/85/85
f 86/86/86 94/94/94 93/93/93
f 87/87/87 94/94/94 86/86/86
f 87/87/87 95/95/95 94/94/94
f 88/88/88 95/95/95 87/87/87
f 88/88/88 96/96/96 95/95/95
f 89/89/89 96/96/96 88/88/88
f 89/89/89 97/97/97 96/96/96
f 28/28/28 26/26/26 98/98/98
f 28/28/28 98/98/98 31/31/31
f 18/18/18 98/98/98 26/26/26
f 31/31/31 98/98/98 99/99/99
f 31/31/31 99/99/99 33/33/33
f 15/15/15 99/99/99 98/98/98
f 15/15/15 98/98/98 18/18/18
f 33/33/33 99/99/99 100/100/100
f 33/33/33 100/100/100 35/35/35
f 12/12/12 100/100/100 99/99/99
f 12/12/12 99/99/99 15/15/15
f 35/35/35 100/100/100 101/101/101
f 35/35/35 101/101/101 37/37/37
f 9/9/9 101/101/101 100/100/100
f 9/9/9 100/100/100 12/12/12
f 37/37/37 101/101/101 102/102/102
f 37/37/37 102/102/102 39/39/39
f 3/3/3 102/102/102 101/101/101
f 3/3/3 101/101/101 9/9/9
f 103/103/103 39/39/39 102/102/102
f 103/103/103 40/40/40 39/39/39
f 2/2/2 103/103/103 102/102/102
f 2/2/2 102/102/102 3/3/3
