g U_Neck_copy
v -2.953377 2.006884 1.57411
v -3.001107 2.016178 1.573618
v -3.024028 2.015161 1.567776
v -3.024027 1.979798 1.602393
v -3.024028 2.049048 1.563402
v -3.002486 2.05013 1.566758
v -3.004374 2.077006 1.569033
v -3.024069 2.075187 1.568798
v -3.005415 2.108912 1.579833
v -2.970721 2.116853 1.564016
v -2.972488 2.083224 1.565566
v -2.950509 2.122683 1.551079
v -2.950318 2.083941 1.547795
v -2.945623 2.133191 1.52007
v -2.945757 2.094302 1.525368
v -2.944743 2.134432 1.512337
v -2.943355 2.096256 1.518249
v -2.944039 2.135555 1.505346
v -2.94164 2.097943 1.511762
v -2.944292 2.153609 1.480533
v -2.941854 2.107679 1.487697
v -3.024028 2.1052 1.585549
v -2.944397 2.062686 1.530294
v -2.94051 2.065302 1.523737
v -3.004041 2.141926 1.595647
v -3.024504 2.135346 1.597466
v -2.971517 2.157859 1.573618
v -2.950613 2.179975 1.550813
v -2.930138 2.206944 1.528028
v -2.929075 2.205532 1.51245
v -2.927991 2.202292 1.48641
v -2.929654 2.206243 1.519845
v -2.933199 2.040342 1.526922
v -2.939043 2.034473 1.536309
v -2.951303 2.052291 1.544344
v -2.97368 2.055806 1.567259
v -2.9507 2.027097 1.549423
v -2.941874 2.201295 1.435645
v -2.961753 2.185691 1.435884
v -2.958533 2.120844 1.447014
v -2.92971 2.07162 1.492671
v -2.944526 2.069395 1.445234
v -2.919187 2.057107 1.481001
v -2.935294 2.0427 1.439294
v -2.991722 2.065513 1.424128
v -2.99049 2.027528 1.419397
v -2.99503 2.108957 1.428569
v -3.024028 2.02387 1.415763
v -3.024028 2.05712 1.428524
v -3.023514 2.097458 1.433569
v -3.052961 2.108124 1.428369
v -3.056366 2.065556 1.423849
v -3.091211 2.122124 1.449241
v -3.104057 2.069663 1.444584
v -3.107005 2.107715 1.487468
v -3.120209 2.072564 1.492667
v -3.113466 2.043029 1.439085
v -3.147461 2.059809 1.484369
v -3.052882 2.026482 1.418827
v -3.120586 2.046609 1.519171
v -3.112474 2.068194 1.518557
v -3.11509 2.041131 1.528407
v -3.109092 2.065634 1.525032
v -3.105664 2.096417 1.519211
v -3.107533 2.098258 1.512258
v -3.109488 2.035319 1.537218
v -3.1054 2.06301 1.531252
v -3.097839 2.027561 1.550081
v -3.097771 2.052451 1.545099
v -3.074419 2.055814 1.567346
v -3.094517 2.005966 1.572941
v -3.1033 2.094473 1.525899
v -3.075644 2.083216 1.565689
v -3.097939 2.084008 1.547974
v -3.09759 2.12268 1.551108
v -3.102518 2.133187 1.520093
v -3.103275 2.134364 1.512765
v -3.118192 2.206367 1.520283
v -3.118748 2.205636 1.512441
v -3.103948 2.135558 1.505337
v -3.117786 2.207022 1.528048
v -3.097492 2.17995 1.550832
v -3.076629 2.157769 1.573652
v -3.077471 2.116824 1.564228
v -3.044016 2.141923 1.595649
v -3.042716 2.108845 1.580068
v -3.024504 2.135346 1.597466
v -3.024028 2.1052 1.585549
v -3.043742 2.076968 1.569458
v -3.024069 2.075187 1.568798
v -3.120122 2.203749 1.491722
v -3.103427 2.153632 1.480579
v -3.093635 2.189575 1.437464
v -3.107414 2.202676 1.438096
v -3.049016 2.160536 1.431624
v -3.045586 2.050123 1.567287
v -3.024028 2.049048 1.563402
v -3.024028 2.015161 1.567776
v -3.046914 2.016348 1.574132
v -3.094517 2.005966 1.572941
v -3.022864 2.147827 1.431227
v -2.998831 2.162453 1.431684
v -3.024027 1.979798 1.602393
v -2.907322 2.049552 1.511377
v -2.919187 2.057107 1.481001
v -2.927795 2.045937 1.518682
v -3.147461 2.059809 1.484369
v -3.144509 2.053858 1.510268
v -3.120586 2.046609 1.519171
v -2.927795 2.045937 1.518682
v -2.937317 2.067587 1.517676

vn 0.2447596 0.4492604 0.8592193
vn -0.07988702 0.09906078 0.9918694
vn -0.0462271 0.5409781 0.8397653
vn 0.01788706 0.699416 0.714491
vn -0.1545969 0.03100187 0.9874911
vn -0.04568194 0.06763614 0.9966637
vn 0.1499729 -0.1546225 0.9765244
vn 0.1360804 -0.3442215 0.9289745
vn 0.4349869 -0.3199572 0.8416733
vn 0.5064857 -0.1088669 0.8553481
vn 0.3469855 -0.003458552 0.9378641
vn 0.8386855 -0.01031341 0.5445182
vn 0.8677708 -0.03324854 0.4958511
vn 0.9599875 -0.09071548 0.2649426
vn 0.9637494 0.03029366 0.2650837
vn 0.9854851 -0.1279719 0.1115455
vn 0.941964 0.1074135 0.3180666
vn 0.992928 -0.1174784 -0.01711027
vn 0.9898452 0.1006345 0.1003942
vn 0.9470211 -0.2228282 -0.2312975
vn 0.9717785 0.09849089 -0.2143505
vn 0.2959766 -0.4129651 0.8613117
vn 0.8168552 0.2032263 0.539858
vn 0.8087685 0.2464487 0.5340008
vn 0.4737056 -0.3796223 0.7946634
vn 0.1962042 -0.3578054 0.9129508
vn 0.6299677 -0.2314649 0.7413263
vn 0.8477984 -0.1048517 0.5198501
vn 0.9079028 -0.2285271 0.3514085
vn 0.9689982 -0.2445714 -0.03503441
vn 0.9438047 -0.2990234 -0.1407758
vn 0.9736668 -0.2138926 0.07888407
vn 0.7295823 0.2843345 0.6219835
vn 0.7340863 0.2308598 0.6386086
vn 0.8257259 0.1487608 0.5441019
vn 0.34102 0.1625294 0.9258993
vn 0.901599 0.1061263 0.4193525
vn 0.8118676 -0.4214767 -0.4040153
vn 0.7202119 -0.1772758 -0.6707222
vn 0.7017643 0.09277061 -0.7063431
vn 0.9182684 0.3630193 -0.158114
vn 0.6504822 0.2926149 -0.7008919
vn 0.858953 0.5011265 -0.1052234
vn 0.4757802 0.2623045 -0.8395412
vn 0.1408035 0.1770881 -0.974071
vn 0.2288372 0.1276332 -0.9650612
vn 0.2167945 0.08714176 -0.9723201
vn -0.05830326 0.2735546 -0.9600879
vn 0.0252249 0.1917777 -0.9811141
vn -0.02363323 0.04582074 -0.9986702
vn -0.1636163 0.02384641 -0.9862358
vn -0.2446659 0.1331309 -0.9604242
vn -0.7375807 0.04602743 -0.6736885
vn -0.6595705 0.2545552 -0.7072258
vn -0.9588681 0.1932853 -0.207877
vn -0.8290609 0.5512345 -0.09380054
vn -0.4693746 0.5631164 -0.6801377
vn -0.4034354 0.911794 -0.07662549
vn -0.1790711 0.2049625 -0.9622495
vn -0.6626132 0.5168716 0.5420216
vn -0.8827924 0.2637542 0.3887304
vn -0.7505601 0.2772093 0.5998453
vn -0.8165888 0.2156478 0.535424
vn -0.9380801 0.1356462 0.3187563
vn -0.9630507 0.2116995 0.166483
vn -0.6961839 0.2534781 0.6716225
vn -0.854474 0.1219943 0.5049669
vn -0.7582144 0.2619175 0.5970847
vn -0.7281533 0.02235475 0.6850498
vn -0.4082344 0.135227 0.9028057
vn -0.7989405 0.3748976 0.4702616
vn -0.963141 0.0607096 0.2620567
vn -0.4467205 -0.0555962 0.8929445
vn -0.787694 -0.01793763 0.6158055
vn -0.8683343 -0.07383934 0.4904521
vn -0.9852784 -0.1257157 0.1158535
vn -0.9885141 -0.1098773 0.1037641
vn -0.9748811 -0.2097445 0.07492676
vn -0.9738922 -0.2128713 0.07886527
vn -0.9933466 -0.1140352 -0.01606877
vn -0.9397959 -0.1389388 0.3122174
vn -0.7399333 0.004512478 0.6726652
vn -0.6538765 -0.1020502 0.7496874
vn -0.542218 -0.1470144 0.8272765
vn -0.4875648 -0.3032203 0.8187417
vn -0.3404394 -0.2806317 0.8974112
vn -0.2724461 -0.3901794 0.8795074
vn -0.2212458 -0.3827929 0.8969504
vn -0.1106095 -0.2025765 0.9729996
vn 0.05667613 -0.2785503 0.9587479
vn -0.9251239 -0.3110168 -0.2177483
vn -0.9497776 -0.1167057 -0.2903486
vn -0.7208886 -0.1812932 -0.6689187
vn -0.6850217 -0.7133173 -0.1480661
vn 0.008552032 0.03401045 -0.9993849
vn 0.05814705 0.07732015 0.9953092
vn 0.1765563 -0.01662855 0.9841501
vn 0.2393919 0.3962896 0.8863668
vn 0.0070127 0.4483409 0.8938352
vn -0.07589995 0.331436 0.9404198
vn -0.0720555 -0.01166813 -0.9973324
vn 0.2432674 -0.02313441 -0.9696833
vn -0.02032452 0.6035529 0.7970639
vn -0.07405902 0.9606075 0.2678591
vn -0.07405902 0.9606075 0.2678591
vn -0.07405902 0.9606075 0.2678591
vn 0.2172531 0.9564437 0.1949784
vn 0.2172531 0.9564437 0.1949784
vn 0.2172531 0.9564437 0.1949784
vn 0.8297731 0.374323 0.4139551
vn 0.9004438 0.3204803 0.2940975


usemtl Copy Mat
usemap Copy Mat
f 1/1/1 2/2/2 3/3/3
f 1/1/1 3/3/3 4/4/4
f 2/2/2 5/5/5 3/3/3
f 2/2/2 6/6/6 5/5/5
f 7/7/7 5/5/5 6/6/6
f 7/7/7 8/8/8 5/5/5
f 8/8/8 7/7/7 9/9/9
f 7/7/7 10/10/10 9/9/9
f 7/7/7 11/11/11 10/10/10
f 11/11/11 7/7/7 6/6/6
f 11/11/11 12/12/12 10/10/10
f 11/11/11 13/13/13 12/12/12
f 13/13/13 14/14/14 12/12/12
f 13/13/13 15/15/15 14/14/14
f 15/15/15 16/16/16 14/14/14
f 15/15/15 17/17/17 16/16/16
f 17/17/17 18/18/18 16/16/16
f 17/17/17 19/19/19 18/18/18
f 19/19/19 20/20/20 18/18/18
f 19/19/19 21/21/21 20/20/20
f 8/8/8 9/9/9 22/22/22
f 17/17/17 15/15/15 23/23/23
f 17/17/17 23/23/23 24/24/24
f 19/19/19 17/17/17 24/24/24
f 25/25/25 22/22/22 9/9/9
f 25/25/25 26/26/26 22/22/22
f 9/9/9 27/27/27 25/25/25
f 9/9/9 10/10/10 27/27/27
f 28/28/28 27/27/27 10/10/10
f 28/28/28 10/10/10 12/12/12
f 28/28/28 12/12/12 14/14/14
f 28/28/28 14/14/14 29/29/29
f 30/30/30 18/18/18 20/20/20
f 30/30/30 20/20/20 31/31/31
f 16/16/16 29/29/29 14/14/14
f 16/16/16 32/32/32 29/29/29
f 32/32/32 16/16/16 18/18/18
f 32/32/32 18/18/18 30/30/30
f 33/33/33 24/24/24 23/23/23
f 33/33/33 23/23/23 34/34/34
f 35/35/35 34/34/34 23/23/23
f 15/15/15 35/35/35 23/23/23
f 15/15/15 13/13/13 35/35/35
f 13/13/13 36/36/36 35/35/35
f 13/13/13 11/11/11 36/36/36
f 11/11/11 6/6/6 36/36/36
f 35/35/35 37/37/37 34/34/34
f 35/35/35 36/36/36 1/1/1
f 35/35/35 1/1/1 37/37/37
f 2/2/2 1/1/1 36/36/36
f 2/2/2 36/36/36 6/6/6
f 20/20/20 38/38/38 31/31/31
f 20/20/20 39/39/39 38/38/38
f 21/21/21 39/39/39 20/20/20
f 21/21/21 40/40/40 39/39/39
f 40/40/40 21/21/21 41/41/41
f 40/40/40 41/41/41 42/42/42
f 43/43/43 42/42/42 41/41/41
f 43/43/43 44/44/44 42/42/42
f 45/45/45 42/42/42 44/44/44
f 45/45/45 44/44/44 46/46/46
f 47/47/47 40/40/40 42/42/42
f 47/47/47 42/42/42 45/45/45
f 48/48/48 45/45/45 46/46/46
f 48/48/48 49/49/49 45/45/45
f 50/50/50 47/47/47 45/45/45
f 50/50/50 45/45/45 49/49/49
f 51/51/51 50/50/50 49/49/49
f 51/51/51 49/49/49 52/52/52
f 53/53/53 51/51/51 52/52/52
f 53/53/53 52/52/52 54/54/54
f 55/55/55 53/53/53 54/54/54
f 55/55/55 54/54/54 56/56/56
f 57/57/57 56/56/56 54/54/54
f 57/57/57 58/58/58 56/56/56
f 54/54/54 52/52/52 59/59/59
f 54/54/54 59/59/59 57/57/57
f 49/49/49 48/48/48 59/59/59
f 49/49/49 59/59/59 52/52/52
f 60/60/60 56/56/56 58/58/58
f 60/60/60 61/61/61 56/56/56
f 62/62/62 61/61/61 60/60/60
f 62/62/62 63/63/63 61/61/61
f 64/64/64 61/61/61 63/63/63
f 64/64/64 65/65/65 61/61/61
f 65/65/65 55/55/55 56/56/56
f 65/65/65 56/56/56 61/61/61
f 63/63/63 62/62/62 66/66/66
f 63/63/63 66/66/66 67/67/67
f 68/68/68 67/67/67 66/66/66
f 68/68/68 69/69/69 67/67/67
f 70/70/70 69/69/69 68/68/68
f 70/70/70 68/68/68 71/71/71
f 72/72/72 64/64/64 63/63/63
f 72/72/72 63/63/63 67/67/67
f 73/73/73 69/69/69 70/70/70
f 73/73/73 74/74/74 69/69/69
f 74/74/74 72/72/72 67/67/67
f 74/74/74 67/67/67 69/69/69
f 72/72/72 74/74/74 75/75/75
f 72/72/72 75/75/75 76/76/76
f 64/64/64 72/72/72 76/76/76
f 64/64/64 76/76/76 77/77/77
f 65/65/65 64/64/64 77/77/77
f 78/78/78 77/77/77 76/76/76
f 77/77/77 78/78/78 79/79/79
f 77/77/77 79/79/79 80/80/80
f 65/65/65 77/77/77 80/80/80
f 78/78/78 76/76/76 81/81/81
f 75/75/75 81/81/81 76/76/76
f 75/75/75 82/82/82 81/81/81
f 83/83/83 82/82/82 75/75/75
f 83/83/83 75/75/75 84/84/84
f 74/74/74 73/73/73 84/84/84
f 74/74/74 84/84/84 75/75/75
f 84/84/84 85/85/85 83/83/83
f 84/84/84 86/86/86 85/85/85
f 73/73/73 86/86/86 84/84/84
f 87/87/87 85/85/85 86/86/86
f 87/87/87 86/86/86 88/88/88
f 89/89/89 88/88/88 86/86/86
f 89/89/89 90/90/90 88/88/88
f 80/80/80 79/79/79 91/91/91
f 80/80/80 91/91/91 92/92/92
f 93/93/93 92/92/92 91/91/91
f 93/93/93 91/91/91 94/94/94
f 55/55/55 80/80/80 92/92/92
f 55/55/55 65/65/65 80/80/80
f 53/53/53 55/55/55 92/92/92
f 53/53/53 92/92/92 93/93/93
f 51/51/51 53/53/53 93/93/93
f 51/51/51 93/93/93 95/95/95
f 90/90/90 89/89/89 96/96/96
f 90/90/90 96/96/96 97/97/97
f 96/96/96 98/98/98 97/97/97
f 96/96/96 99/99/99 98/98/98
f 100/100/100 99/99/99 96/96/96
f 100/100/100 96/96/96 70/70/70
f 89/89/89 70/70/70 96/96/96
f 89/89/89 73/73/73 70/70/70
f 73/73/73 89/89/89 86/86/86
f 50/50/50 51/51/51 95/95/95
f 50/50/50 95/95/95 101/101/101
f 47/47/47 50/50/50 101/101/101
f 47/47/47 101/101/101 102/102/102
f 40/40/40 47/47/47 102/102/102
f 40/40/40 102/102/102 39/39/39
f 99/99/99 100/100/100 103/103/103
f 99/99/99 103/103/103 98/98/98
f 104/104/104 105/105/105 106/106/106
f 107/107/107 108/108/108 109/109/109
f 24/24/24 33/33/33 110/110/110
f 24/24/24 110/110/110 111/111/111
f 111/111/111 110/110/110 43/43/43
f 111/111/111 43/43/43 41/41/41
f 21/21/21 111/111/111 41/41/41
f 21/21/21 19/19/19 111/111/111
f 19/19/19 24/24/24 111/111/111
